<svg width="20" height="20" viewBox="0 0 20 20" fill="none" xmlns="http://www.w3.org/2000/svg">
<g clip-path="url(#clip0_1296_4812)">
<path fill-rule="evenodd" clip-rule="evenodd" d="M12.8662 14.1964C12.1379 15.0317 11.2982 15.7542 10.3727 16.3419C10.3153 16.3865 10.2462 16.4117 10.1746 16.4142C10.103 16.4166 10.0324 16.3961 9.97233 16.3555C8.65473 15.4896 7.4848 14.4021 6.51042 13.1372C5.23763 11.4891 4.44173 9.66173 4.16992 7.90201C3.89323 6.1169 4.15202 4.39947 5.00651 3.00353C5.35489 2.4391 5.79106 1.93878 6.2972 1.52299C7.50326 0.51791 8.87858 -0.0100086 10.2539 0.000143716C11.6495 0.0246289 12.9855 0.592847 13.9974 1.59236C14.387 1.96351 14.724 2.3902 14.9984 2.8597C15.9163 4.43331 16.1149 6.44008 15.7113 8.47392C15.2641 10.6089 14.2801 12.5824 12.8597 14.193L12.8662 14.1964ZM4.12109 12.7226C4.20031 12.7183 4.27955 12.7308 4.35399 12.7593C4.42842 12.7878 4.49649 12.8318 4.55404 12.8885C4.6116 12.9453 4.65743 13.0136 4.68876 13.0894C4.72008 13.1652 4.73623 13.2468 4.73623 13.3292C4.73623 13.4117 4.72008 13.4933 4.68876 13.5691C4.65743 13.6449 4.6116 13.7132 4.55404 13.77C4.49649 13.8267 4.42842 13.8707 4.35399 13.8992C4.27955 13.9277 4.20031 13.9402 4.12109 13.9358H3.02409L1.5804 18.7819H18.3789L16.8115 13.9308H15.9049C15.8257 13.9351 15.7465 13.9227 15.6721 13.8941C15.5976 13.8656 15.5296 13.8216 15.472 13.7649C15.4144 13.7081 15.3686 13.6398 15.3373 13.564C15.306 13.4882 15.2898 13.4066 15.2898 13.3242C15.2898 13.2417 15.306 13.1601 15.3373 13.0843C15.3686 13.0086 15.4144 12.9402 15.472 12.8835C15.5296 12.8267 15.5976 12.7827 15.6721 12.7542C15.7465 12.7257 15.8257 12.7132 15.9049 12.7176H17.6465L20 19.9934H0L2.16797 12.7176L4.12109 12.7226ZM9.99023 2.86647L6.52507 6.28441L7.33887 6.73111L9.96745 3.98661L12.6351 6.73111L13.4489 6.28441L9.99023 2.86647ZM7.63184 7.21842L9.99349 4.76326L12.3486 7.21842V9.62789H10.6283V7.93585H9.33757V9.62789H7.63184V7.21842Z" fill="#212121"/>
</g>
<defs>
<clipPath id="clip0_1296_4812">
<rect width="20" height="20" fill="white"/>
</clipPath>
</defs>
</svg>
