<svg width="20" height="20" viewBox="0 0 20 20" fill="none" xmlns="http://www.w3.org/2000/svg">
<path d="M17.9958 3.01276C17.9937 2.65579 17.7273 2.09049 17.5593 1.83791C17.318 1.52132 16.9935 1.25671 16.6114 1.14159C15.7377 0.896738 14.7435 1.00714 13.9669 1.49082C13.8588 1.56342 13.757 1.65964 13.6743 1.77004C13.4278 1.44013 13.0347 1.27604 12.6665 1.12355C11.7941 0.84562 10.5331 1.0269 9.92365 1.76617C9.91898 1.76059 9.91474 1.755 9.91008 1.74985C9.74339 1.53206 9.5801 1.29236 9.31756 1.18626C8.73353 0.958165 8.01335 1.07028 7.40556 1.15533C7.01621 1.23266 6.62091 1.35938 6.31045 1.61969C6.24513 1.6794 6.18151 1.74383 6.12128 1.81256C5.95121 1.53335 5.68443 1.32114 5.35996 1.24855C4.39803 1.06513 3.3097 1.27389 2.60097 1.99212C2.35497 2.22151 2.09413 2.57933 2.08649 2.932C2.03984 3.00417 2.00973 3.09008 2.00548 3.17857C1.96265 3.4784 2.18192 3.72025 2.27481 3.98958C2.49875 4.53856 2.68749 5.10172 2.89659 5.65671C3.24862 6.52657 3.64222 7.43939 3.99086 8.34061C4.44256 9.36726 4.99775 10.3407 5.56949 11.3024C5.9194 11.9223 6.19678 12.5851 6.56238 13.1951C6.54075 13.2217 6.52167 13.2526 6.5064 13.2887C6.46059 13.3815 6.43981 13.4923 6.44448 13.6019C6.3448 13.6878 6.27355 13.8343 6.27143 14.0336C6.28245 15.132 6.03646 16.3575 6.64594 17.3395C6.94453 17.821 7.40217 18.16 7.89586 18.4156C8.36199 18.6819 8.8561 18.9319 9.39603 18.9856C10.1764 19.065 11.0951 18.806 11.7928 18.4559C12.569 18.0745 13.0589 17.3215 13.2361 16.4808C13.3816 15.9112 13.4334 15.3197 13.4312 14.7329C13.4066 14.3931 13.4961 13.8596 13.2942 13.5667C13.536 13.1521 13.7171 12.5443 13.8278 12.3269C14.1251 11.6512 14.3949 10.9652 14.657 10.2749C15.0022 9.43513 15.459 8.64904 15.8238 7.81869C16.1873 6.88354 16.6165 5.98017 17.0703 5.08711C17.2968 4.5987 17.564 4.13134 17.8041 3.64937C17.9025 3.45005 18.0267 3.24 17.9949 3.01233L17.9958 3.01276ZM10.3809 2.68672C10.556 2.43929 10.8334 2.29926 11.1125 2.20561C11.543 2.10939 12.004 2.02906 12.4383 2.14032C12.6873 2.24255 12.9952 2.30914 13.1615 2.53809C13.254 2.67856 13.3074 2.87358 13.4105 3.01276C13.3791 3.33192 13.332 3.6498 13.2811 3.96596C13.1153 4.96297 12.787 5.92476 12.6347 6.92435C12.4964 7.70228 12.4472 8.49182 12.3531 9.27577C12.2678 9.99829 12.1173 10.7092 11.9234 11.4094C11.8106 11.8506 11.6889 12.2891 11.585 12.7325C11.557 12.845 11.5667 12.9837 11.6164 13.0993C11.5082 13.1032 11.4001 13.107 11.2919 13.1109C10.9556 13.1229 10.6192 13.1272 10.2829 13.1268C10.2926 13.0838 10.299 13.037 10.2999 12.9859C10.2893 12.2264 10.2303 11.4489 10.2413 10.683C10.2519 9.71564 10.3317 8.75041 10.3346 7.78261C10.3304 7.02229 10.2786 6.26282 10.2795 5.50207C10.2697 4.62705 10.3461 3.73829 10.2638 2.86585C10.2668 2.86069 10.2706 2.8564 10.2731 2.85124C10.3071 2.79497 10.3431 2.74042 10.3809 2.68715V2.68672ZM7.29529 2.29711C7.80722 2.16394 8.34036 2.09479 8.86883 2.11841C9.12882 2.11884 9.26879 2.33018 9.40705 2.52091C9.41723 2.53079 9.42784 2.53895 9.43801 2.54754C9.48043 3.551 9.46007 4.55961 9.48509 5.56521C9.53429 6.46128 9.56229 7.35691 9.57756 8.25427C9.6064 9.01717 9.6522 9.77921 9.66747 10.5425C9.68783 11.36 9.62124 12.1676 9.61064 12.9855C9.61191 13.034 9.61785 13.0787 9.62633 13.1195C9.31077 13.1135 8.99564 13.1045 8.68009 13.0941C8.42349 11.8158 7.87847 10.5584 7.68295 9.25558C7.54977 8.15676 7.28129 7.082 7.15999 5.98146C7.07474 5.08153 6.78548 4.22498 6.61879 3.34094C6.59165 3.1674 6.55051 3.02865 6.50088 2.91868C6.50131 2.90451 6.50088 2.89033 6.50088 2.87573C6.64255 2.55914 6.97592 2.38989 7.29529 2.29668V2.29711ZM5.20982 9.27963C4.70383 7.91234 4.12743 6.57211 3.63162 5.20138C3.44712 4.65368 3.26601 4.10427 3.04419 3.57076C2.98269 3.43545 2.92374 3.29541 2.85333 3.16268C2.86521 3.13819 2.87623 3.11285 2.88599 3.08707C3.42761 2.42598 4.30387 2.19487 5.12414 2.26188C5.30483 2.28121 5.50332 2.35209 5.56694 2.5411C5.60893 2.63389 5.65049 2.76662 5.70012 2.89892C5.70097 2.9088 5.70097 2.91868 5.70224 2.92856C5.70818 2.98398 5.71921 3.03381 5.73447 3.07891C5.73235 3.13518 5.73617 3.19489 5.74762 3.25761C5.80912 3.4827 5.8456 3.71294 5.88504 3.94276C5.97199 4.44835 6.13995 4.93419 6.2481 5.43506C6.4695 6.57125 6.61667 7.72118 6.86649 8.85222C6.97973 9.45575 7.17865 10.0361 7.36909 10.6177C7.61296 11.4249 7.85642 12.235 7.98196 13.0705C7.83776 13.0658 7.69355 13.0611 7.54934 13.0568C7.52941 13.0581 7.50863 13.0585 7.48742 13.0585C7.47258 13.0168 7.45349 12.9773 7.42889 12.9425C7.2796 12.7282 7.13666 12.5099 6.98567 12.2973C6.66587 11.8467 6.35456 11.3901 6.07548 10.9124C5.75144 10.3883 5.44055 9.85396 5.20982 9.27963ZM12.4434 16.1767C12.4617 17.242 11.6957 17.8885 10.7142 18.056C10.0674 18.2085 9.39645 18.1097 8.81114 17.7953C8.3183 17.5156 7.73596 17.3262 7.38478 16.8537C7.17102 16.5938 7.08704 16.2669 7.07432 15.934C7.04335 15.3326 7.1057 14.7286 7.06923 14.1277C7.37884 14.1569 7.69101 14.1655 8.0019 14.1805C9.06817 14.2097 10.1349 14.1633 11.2007 14.1333C11.6193 14.1285 12.0375 14.1135 12.4557 14.0967C12.4511 14.2458 12.4595 14.394 12.4621 14.5168C12.4757 15.0706 12.4702 15.6238 12.4439 16.1767H12.4434ZM15.3742 6.79892C14.7936 8.07042 14.3457 9.39561 13.849 10.7015C13.5521 11.4219 13.0941 12.0559 12.7306 12.741C12.6487 12.8484 12.5707 12.9567 12.5117 13.0662C12.4142 13.0701 12.3166 13.0735 12.2186 13.077C12.2882 12.9103 12.3145 12.6946 12.348 12.5495C12.4477 11.9674 12.5452 11.3853 12.6754 10.8093C12.9638 9.54038 13.2395 8.26716 13.4062 6.97503C13.5619 6.14727 13.8558 5.35258 14.0259 4.52739C14.1277 4.01106 14.21 3.48742 14.2371 2.96121C14.2379 2.84136 14.2435 2.69231 14.229 2.54883C14.2447 2.53208 14.2625 2.5179 14.2804 2.5033C14.643 2.28336 15.0578 2.16953 15.476 2.12657C16.0549 2.07374 16.8171 2.09607 17.0966 2.71078C17.1348 2.78208 17.1615 2.86413 17.1865 2.94789C16.4697 4.17086 15.9124 5.4866 15.3742 6.79849V6.79892Z" fill="#212121"/>
</svg>
