<svg width="21" height="20" viewBox="0 0 21 20" fill="none" xmlns="http://www.w3.org/2000/svg">
<path d="M19.66 1.22399L19.2756 0.839574C18.7165 0.280433 17.9808 -0.0173796 17.2007 0.00078443C16.422 0.0190266 15.6999 0.35098 15.1676 0.935589C15.1651 0.938363 15.1627 0.941136 15.1602 0.943949L2.30527 16.0152L2.20371 15.9136C2.01516 15.7251 1.76449 15.6213 1.49789 15.6213C1.23129 15.6213 0.980547 15.7252 0.791914 15.9138C0.402695 16.303 0.402695 16.9363 0.791914 17.3255L3.1741 19.7077C3.36262 19.8962 3.61332 20 3.88 20C4.14668 20 4.39738 19.8962 4.58586 19.7077C4.77441 19.5191 4.87828 19.2684 4.87828 19.0018C4.87828 18.7351 4.77441 18.4844 4.58594 18.2959L4.48441 18.1944L19.5556 5.3395C19.5585 5.33711 19.5613 5.33461 19.564 5.33211C20.1486 4.79977 20.4806 4.07762 20.4988 3.29879C20.517 2.51993 20.2191 1.78309 19.66 1.22399ZM15.6807 1.39559C15.9455 1.10618 16.2713 0.899378 16.6295 0.786956C16.207 1.85735 15.5566 2.74625 14.6517 3.49094C14.1169 3.93102 13.6791 4.12762 13.2434 4.25293L15.6807 1.39559ZM4.09859 19.2204C4.0402 19.2788 3.96258 19.3109 3.87996 19.3109C3.7973 19.3109 3.71969 19.2788 3.66129 19.2204L1.27922 16.8382C1.15867 16.7177 1.15867 16.5215 1.27918 16.401C1.33758 16.3425 1.41531 16.3104 1.49789 16.3104C1.58047 16.3104 1.65809 16.3425 1.71645 16.4009L4.09863 18.7831C4.15703 18.8415 4.18922 18.9191 4.18922 19.0018C4.18918 19.0843 4.15703 19.162 4.09859 19.2204ZM3.99559 17.7055L2.79406 16.504L3.27902 15.9354L4.56418 17.2206L3.99559 17.7055ZM5.09008 16.772L3.72762 15.4095L4.70609 14.2623L6.2373 15.7935L5.09008 16.772ZM6.7632 15.3449L5.15465 13.7364L5.82934 12.9454L7.55414 14.6702L6.7632 15.3449ZM11.2644 11.5057C11.4666 10.3937 11.9816 9.1427 13.1923 8.30453C13.8819 7.82707 14.6913 7.79707 15.6229 7.78813L11.2644 11.5057ZM19.104 4.81895L16.4467 7.08543C16.2166 7.09356 15.9864 7.0959 15.7628 7.09774C14.7018 7.10664 13.6997 7.115 12.8 7.73797C11.0973 8.9168 10.5957 10.7686 10.4842 12.1711L8.08008 14.2217L6.27793 12.4195L12.4924 5.13364C12.585 5.11274 12.6773 5.0927 12.7674 5.07364C13.4594 4.92723 14.1749 4.77586 15.0896 4.02313C16.1844 3.12219 16.9414 2.0309 17.3986 0.693636C17.9204 0.725199 18.4076 0.946136 18.7883 1.32684L19.1727 1.71125C19.5973 2.13586 19.8236 2.69395 19.8098 3.2827C19.7961 3.86957 19.5455 4.41496 19.104 4.81895Z" fill="#212121"/>
</svg>
