<svg width="20" height="20" viewBox="0 0 20 20" fill="none" xmlns="http://www.w3.org/2000/svg">
<g clip-path="url(#clip0_1296_5049)">
<path fill-rule="evenodd" clip-rule="evenodd" d="M7.97494 14.0576C7.68112 15.5693 7.03458 16.9662 6.10157 18.1051C5.62997 18.687 5.08815 19.192 4.49186 19.6053C4.40057 19.6814 4.29085 19.7246 4.17721 19.7292C4.06357 19.7337 3.95138 19.6995 3.85547 19.6309C2.99667 19.0237 2.23423 18.2597 1.59961 17.3705C0.81588 16.2984 0.289729 15.0188 0.0712914 13.6537C-0.115883 12.3563 0.0615258 11.1028 0.650719 10.0777C0.889661 9.6596 1.18888 9.28908 1.53614 8.98127C2.28908 8.27689 3.23516 7.88519 4.21517 7.87209C5.17496 7.88657 6.09474 8.30603 6.79167 9.04705C7.06231 9.32172 7.29637 9.63865 7.48666 9.98812C8.10677 11.1393 8.24512 12.5939 7.97494 14.0576ZM6.67285 19.3732H19.4512V5.86935H14.4105V19.3696H13.8522V0.626772H5.34636V6.69347H5.32845H5.32031H5.29427H5.28614H5.25196H5.24219H5.22591H5.20801H5.18197H5.1722H4.78809V3.28917V0.548197C4.78863 0.403489 4.84012 0.264893 4.93132 0.162633C4.97667 0.111165 5.03066 0.070295 5.09017 0.0423814C5.14967 0.0144677 5.21351 6.39523e-05 5.278 1.64593e-06H13.9206C13.985 -0.000175453 14.0487 0.0139407 14.1082 0.0415378C14.1677 0.0691349 14.2218 0.109668 14.2673 0.160806L14.2868 0.186388C14.3666 0.287001 14.4107 0.417103 14.4105 0.551852V5.24258H19.5895C19.6431 5.24241 19.6963 5.25428 19.7457 5.2775C19.7952 5.30073 19.84 5.33483 19.8776 5.3778C19.9159 5.41997 19.9463 5.47031 19.9669 5.52585C19.9876 5.5814 19.9982 5.64103 19.9981 5.70124V19.6857C19.9981 19.7269 19.9908 19.7677 19.9767 19.8057C19.9626 19.8437 19.942 19.8783 19.916 19.9073C19.8899 19.9363 19.8591 19.9593 19.8251 19.9749C19.7912 19.9905 19.7548 19.9984 19.7181 19.9982H6.03809L6.05111 19.9854L6.06576 19.9726L6.07878 19.9598L6.09343 19.947L6.10319 19.9379H6.11296H6.1211H6.13086H6.139H6.14877H6.15853L6.1683 19.9287V19.9196H6.17806H6.1862H6.19434L6.2041 19.9105H6.21387H6.22364H6.23177L6.51009 19.5523L6.528 19.5359H6.53776L6.5459 19.5267L6.55404 19.5176L6.67285 19.3732ZM9.12728 11.0626H9.77832C9.79093 11.0626 9.80342 11.0654 9.81507 11.0708C9.82672 11.0762 9.83731 11.0842 9.84623 11.0942C9.85514 11.1042 9.86222 11.1161 9.86704 11.1291C9.87187 11.1422 9.87435 11.1562 9.87435 11.1704V12.9118C9.87393 12.9403 9.86368 12.9674 9.84576 12.9875C9.82784 13.0077 9.80366 13.0192 9.77832 13.0196H9.27702C9.29553 12.5773 9.27919 12.134 9.22819 11.6948C9.20378 11.4847 9.1696 11.2764 9.12728 11.0717V11.0626ZM9.06218 14.6642H9.77507C9.80025 14.6647 9.82426 14.6763 9.84192 14.6964C9.85958 14.7166 9.86947 14.7438 9.86947 14.772V16.5135C9.86969 16.5275 9.8674 16.5415 9.86276 16.5546C9.85811 16.5677 9.85119 16.5796 9.8424 16.5896C9.83361 16.5996 9.82313 16.6076 9.81157 16.6131C9.80001 16.6185 9.7876 16.6213 9.77507 16.6213H8.42416C8.69882 15.9966 8.91273 15.3404 9.06218 14.6642ZM8.24837 7.46094H9.77832C9.80336 7.46094 9.82737 7.47211 9.84508 7.49198C9.86278 7.51186 9.87272 7.53882 9.87272 7.56693V9.30836C9.87294 9.32243 9.87066 9.33641 9.86601 9.34948C9.86136 9.36255 9.85444 9.37445 9.84566 9.38449C9.83687 9.39452 9.82639 9.40249 9.81483 9.40793C9.80327 9.41337 9.79086 9.41617 9.77832 9.41617H8.55762L8.49577 9.29922C8.39067 9.10345 8.27602 8.91434 8.15235 8.73276V7.56693C8.15234 7.55285 8.15484 7.53892 8.15969 7.52594C8.16453 7.51296 8.17163 7.5012 8.18057 7.49133C8.18951 7.48146 8.20011 7.4737 8.21175 7.46848C8.22339 7.46326 8.23584 7.4607 8.24837 7.46094ZM11.0153 14.6642H12.5322C12.5574 14.6647 12.5814 14.6763 12.5991 14.6964C12.6167 14.7166 12.6266 14.7438 12.6266 14.772V16.5135C12.6278 16.5281 12.6262 16.5429 12.6219 16.5568C12.6177 16.5708 12.6109 16.5836 12.602 16.5944C12.5932 16.6052 12.5824 16.6139 12.5703 16.6198C12.5583 16.6256 12.5453 16.6287 12.5322 16.6286H11.0023C10.9896 16.6288 10.977 16.6262 10.9653 16.6209C10.9535 16.6156 10.9428 16.6076 10.9339 16.5976C10.9249 16.5875 10.9179 16.5755 10.9131 16.5623C10.9084 16.5491 10.906 16.535 10.9063 16.5208V14.772C10.9063 14.7434 10.9164 14.716 10.9344 14.6958C10.9524 14.6756 10.9768 14.6642 11.0023 14.6642H11.0153ZM11.0153 11.0626H12.5322C12.5448 11.0626 12.5572 11.0654 12.5687 11.0708C12.5803 11.0763 12.5908 11.0842 12.5996 11.0943C12.6084 11.1043 12.6153 11.1162 12.6199 11.1293C12.6246 11.1423 12.6268 11.1563 12.6266 11.1704V12.9118C12.6266 12.9401 12.6167 12.9673 12.5991 12.9874C12.5814 13.0076 12.5574 13.0192 12.5322 13.0196H11.0023C10.9768 13.0196 10.9524 13.0083 10.9344 12.9881C10.9164 12.9678 10.9063 12.9404 10.9063 12.9118V11.1704C10.906 11.1562 10.9084 11.142 10.9131 11.1288C10.9179 11.1157 10.9249 11.1037 10.9339 11.0936C10.9428 11.0836 10.9535 11.0756 10.9653 11.0703C10.977 11.065 10.9896 11.0623 11.0023 11.0626H11.0153ZM11.0153 7.46094H12.5322C12.5573 7.46094 12.5813 7.47211 12.599 7.49198C12.6167 7.51186 12.6266 7.53882 12.6266 7.56693V9.30836C12.6268 9.32243 12.6246 9.33641 12.6199 9.34948C12.6153 9.36255 12.6084 9.37445 12.5996 9.38449C12.5908 9.39452 12.5803 9.40249 12.5687 9.40793C12.5572 9.41337 12.5448 9.41617 12.5322 9.41617H11.0023C10.9896 9.41642 10.977 9.4138 10.9653 9.40847C10.9535 9.40314 10.9428 9.39521 10.9339 9.38515C10.9249 9.37509 10.9179 9.3631 10.9131 9.34991C10.9084 9.33672 10.906 9.32259 10.9063 9.30836V7.56693C10.9063 7.55285 10.9087 7.53892 10.9136 7.52594C10.9184 7.51296 10.9255 7.5012 10.9345 7.49133C10.9434 7.48146 10.954 7.4737 10.9657 7.46848C10.9773 7.46326 10.9897 7.4607 11.0023 7.46094H11.0153ZM15.8981 13.0471H18.1117C18.1377 13.0471 18.1589 13.0653 18.1589 13.0836V14.1051C18.1589 14.1233 18.1344 14.1434 18.1117 14.1434H15.8851C15.8623 14.1434 15.8379 14.1252 15.8379 14.1051V13.0836C15.8379 13.0635 15.8591 13.0471 15.8851 13.0471H15.8981ZM6.59636 1.98995H12.6022C12.6614 1.99042 12.718 2.01689 12.76 2.06369C12.802 2.11048 12.826 2.17388 12.8268 2.24029V4.90635C12.826 4.97277 12.802 5.03616 12.76 5.08296C12.718 5.12975 12.6614 5.15622 12.6022 5.15669H6.59636C6.5372 5.15622 6.48056 5.12975 6.43857 5.08296C6.39658 5.03616 6.3726 4.97277 6.37175 4.90635V2.24029C6.37218 2.17373 6.39603 2.11006 6.43811 2.06316C6.48018 2.01627 6.53707 1.98995 6.59636 1.98995ZM15.8851 10.8122H18.0986C18.1247 10.8122 18.1458 10.8323 18.1458 10.8506V11.8776C18.1458 11.8958 18.1214 11.9159 18.0986 11.9159H15.8851C15.8623 11.9159 15.8379 11.8977 15.8379 11.8776V10.8506C15.8379 10.8287 15.8591 10.8122 15.8851 10.8122ZM15.8851 8.5884H18.0986C18.1247 8.5884 18.1458 8.6085 18.1458 8.62677V9.64642C18.1458 9.66469 18.1214 9.68479 18.0986 9.68479H15.8851C15.8623 9.68479 15.8379 9.66834 15.8379 9.64642V8.61763C15.8379 8.59571 15.8591 8.57926 15.8851 8.57926V8.5884ZM4.04916 10.3956C4.41459 10.3953 4.77191 10.5166 5.07592 10.7443C5.37993 10.9719 5.61696 11.2957 5.75703 11.6747C5.8971 12.0536 5.93391 12.4707 5.86282 12.8731C5.79172 13.2756 5.61591 13.6453 5.35762 13.9355C5.09933 14.2258 4.77017 14.4235 4.41178 14.5036C4.05339 14.5838 3.68187 14.5429 3.34422 14.3859C3.00657 14.229 2.71796 13.9632 2.5149 13.6221C2.31184 13.281 2.20345 12.8799 2.20345 12.4696C2.20345 11.9199 2.39786 11.3926 2.74395 11.0037C3.09004 10.6148 3.5595 10.3961 4.04916 10.3956Z" fill="#212121"/>
</g>
<defs>
<clipPath id="clip0_1296_5049">
<rect width="20" height="20" fill="white"/>
</clipPath>
</defs>
</svg>
