<svg width="20" height="20" viewBox="0 0 20 20" fill="none" xmlns="http://www.w3.org/2000/svg">
<g clip-path="url(#clip0_1296_5224)">
<path fill-rule="evenodd" clip-rule="evenodd" d="M0 17.7037H2.39583V0.277753C2.39583 0.125608 2.51139 0 2.65137 0H10.7666C10.9066 0 11.0221 0.125608 11.0221 0.277753V6.81115H18.2031C18.3431 6.81115 18.4587 6.93675 18.4587 7.0889V17.7019H20V20H0V17.7037ZM4.44661 2.62185H6.10677C6.15723 2.62185 6.19954 2.66785 6.19954 2.72269V4.90933C6.19954 4.96417 6.15723 5.01017 6.10677 5.01017H4.44661C4.39616 5.01017 4.35384 4.96417 4.35384 4.90933V2.72269C4.35384 2.66785 4.39616 2.62185 4.44661 2.62185ZM7.25911 13.4985H8.91927C8.96973 13.4985 9.01204 13.5444 9.01204 13.5993V15.7859C9.01204 15.8408 8.96973 15.8868 8.91927 15.8868H7.25911C7.20866 15.8868 7.16634 15.8408 7.16634 15.7859V13.5993C7.16634 13.5427 7.20866 13.4985 7.25911 13.4985ZM4.44661 13.4985H6.10677C6.15723 13.4985 6.19954 13.5444 6.19954 13.5993V15.7859C6.19954 15.8408 6.15723 15.8868 6.10677 15.8868H4.44661C4.39616 15.8868 4.35384 15.8408 4.35384 15.7859V13.5993C4.35384 13.5427 4.39616 13.4985 4.44661 13.4985ZM7.25911 9.87174H8.91927C8.96973 9.87174 9.01204 9.91774 9.01204 9.97258V12.1592C9.01204 12.2141 8.96973 12.2601 8.91927 12.2601H7.25911C7.20866 12.2601 7.16634 12.2141 7.16634 12.1592V9.97435C7.16634 9.91774 7.20866 9.87174 7.25911 9.87174ZM4.44661 9.87174H6.10677C6.15723 9.87174 6.19954 9.91774 6.19954 9.97258V12.1592C6.19954 12.2141 6.15723 12.2601 6.10677 12.2601H4.44661C4.39616 12.2601 4.35384 12.2141 4.35384 12.1592V9.97435C4.35384 9.91774 4.39616 9.87174 4.44661 9.87174ZM7.25911 6.24679H8.91927C8.96973 6.24679 9.01204 6.29279 9.01204 6.34763V8.53428C9.01204 8.58912 8.96973 8.63512 8.91927 8.63512H7.25911C7.20866 8.63512 7.16634 8.58912 7.16634 8.53428V6.34763C7.16634 6.29279 7.20866 6.24679 7.25911 6.24679ZM4.44661 6.24679H6.10677C6.15723 6.24679 6.19954 6.29279 6.19954 6.34763V8.53428C6.19954 8.58912 6.15723 8.63512 6.10677 8.63512H4.44661C4.39616 8.63512 4.35384 8.58912 4.35384 8.53428V6.34763C4.35384 6.29279 4.39616 6.24679 4.44661 6.24679ZM7.25911 2.62185H8.91927C8.96973 2.62185 9.01204 2.66785 9.01204 2.72269V4.90933C9.01204 4.96417 8.96973 5.01017 8.91927 5.01017H7.25911C7.20866 5.01017 7.16634 4.96417 7.16634 4.90933V2.72269C7.16634 2.66785 7.20866 2.62185 7.25911 2.62185ZM3.77116 1.295H9.61751C9.71842 1.295 9.80143 1.40292 9.80143 1.53383V16.7253C9.80143 16.8563 9.71842 16.9642 9.61751 16.9642H3.77116C3.67025 16.9642 3.58724 16.8563 3.58724 16.7253V1.53383C3.58724 1.40292 3.67025 1.295 3.77116 1.295ZM11.818 9.45245H13.4782C13.5286 9.45245 13.571 9.49845 13.571 9.55329V11.7399C13.571 11.7948 13.5286 11.8408 13.4782 11.8408H11.818C11.7676 11.8408 11.7253 11.7948 11.7253 11.7399V9.55329C11.7253 9.49845 11.7676 9.45245 11.818 9.45245ZM14.6305 13.4985H16.2907C16.3411 13.4985 16.3835 13.5444 16.3835 13.5993V15.7859C16.3835 15.8408 16.3411 15.8868 16.2907 15.8868H14.6305C14.5801 15.8868 14.5378 15.8408 14.5378 15.7859V13.5993C14.5378 13.5427 14.5801 13.4985 14.6305 13.4985ZM11.818 13.4985H13.4782C13.5286 13.4985 13.571 13.5444 13.571 13.5993V15.7859C13.571 15.8408 13.5286 15.8868 13.4782 15.8868H11.818C11.7676 15.8868 11.7253 15.8408 11.7253 15.7859V13.5993C11.7253 13.5427 11.7676 13.4985 11.818 13.4985ZM14.6305 9.45245H16.2907C16.3411 9.45245 16.3835 9.49845 16.3835 9.55329V11.7399C16.3835 11.7948 16.3411 11.8408 16.2907 11.8408H14.6305C14.5801 11.8408 14.5378 11.7948 14.5378 11.7399V9.55329C14.5378 9.49845 14.5801 9.45245 14.6305 9.45245ZM11.2077 8.10615H17.054C17.1549 8.10615 17.238 8.21406 17.238 8.34498V16.7253C17.238 16.8563 17.1549 16.9642 17.054 16.9642H11.2077C11.1068 16.9642 11.0238 16.8563 11.0238 16.7253V8.34498C11.0238 8.21406 11.1068 8.10615 11.2077 8.10615Z" fill="#212121"/>
</g>
<defs>
<clipPath id="clip0_1296_5224">
<rect width="20" height="20" fill="white"/>
</clipPath>
</defs>
</svg>
