<svg width="20" height="20" viewBox="0 0 20 20" fill="none" xmlns="http://www.w3.org/2000/svg">
<path d="M12.8451 18.1064L13.1987 18.0003C16.4408 17.0319 18.6303 14.0003 18.546 10.6319C18.546 10.4846 18.4618 10.3372 18.3355 10.253C18.2092 10.1477 18.0408 10.1267 17.8934 10.1688L12.8451 18.1064ZM12.8451 18.1064L12.8015 18.0827L12.7776 18.1267L12.792 18.1746L12.8395 18.1603L14.4829 19.053C14.6092 19.1161 14.6934 19.2214 14.7355 19.3477C14.7776 19.474 14.7566 19.6003 14.6934 19.7267C14.6092 19.8951 14.4408 20.0003 14.2513 20.0003C14.1671 20.0003 14.0829 19.9793 13.9987 19.9372L12.8451 18.1064ZM17.5853 10.6909C17.5664 10.4638 17.7179 10.2738 17.9075 10.2168C18.0417 10.1785 18.1921 10.1985 18.3035 10.2914L18.3033 10.2916L18.3078 10.2946C18.4214 10.3703 18.496 10.5027 18.496 10.6319L18.4961 10.6332C18.5797 13.9791 16.4048 16.9905 13.1844 17.9524L13.1843 17.9525L12.7633 18.0788L12.6482 18.1133L12.7538 18.1706L14.459 19.0969L14.459 19.0969L14.4605 19.0977C14.5741 19.1545 14.6498 19.2488 14.6881 19.3635C14.7249 19.4738 14.7078 19.5862 14.6487 19.7043C14.5729 19.8559 14.4217 19.9503 14.2513 19.9503C14.176 19.9503 14.0996 19.9316 14.0218 19.8929L11.2437 18.3775L11.2437 18.3775L11.2421 18.3767C11.0176 18.2644 10.9385 17.9809 11.0535 17.7498L12.5684 14.9726C12.6283 14.8731 12.723 14.783 12.828 14.7655L12.828 14.7658L12.8335 14.7642C12.967 14.7261 13.0805 14.7445 13.1974 14.803C13.4219 14.9152 13.501 15.1988 13.3859 15.4299L12.46 17.1344L12.4021 17.241L12.5183 17.2061L12.9392 17.0799C12.9392 17.0799 12.9392 17.0799 12.9393 17.0799C15.74 16.2523 17.6492 13.6216 17.5855 10.694L17.5856 10.694L17.5853 10.6909Z" fill="#95989C" stroke="white" stroke-width="0.1"/>
<path d="M1.89393 12.8471L2 13.2006C2.96842 16.4427 6 18.6322 9.36842 18.548C9.51579 18.548 9.66316 18.4638 9.74737 18.3375C9.85263 18.2112 9.87368 18.0427 9.83158 17.8954L1.89393 12.8471ZM1.89393 12.8471L1.91762 12.8034L1.87368 12.7796L1.82579 12.7939L1.84006 12.8415L0.947368 14.4848C0.884211 14.6112 0.778947 14.6954 0.652632 14.7375C0.526316 14.7796 0.4 14.7585 0.273684 14.6954C0.105263 14.6112 0 14.4427 0 14.2533C0 14.1691 0.0210526 14.0848 0.0631579 14.0006L1.89393 12.8471ZM9.30942 17.5873C9.5365 17.5684 9.72655 17.7198 9.78359 17.9094C9.82184 18.0436 9.80181 18.194 9.70896 18.3055L9.70874 18.3053L9.70577 18.3097C9.63001 18.4234 9.49765 18.498 9.36842 18.498L9.36717 18.498C6.02125 18.5817 3.00986 16.4068 2.04791 13.1863L2.04789 13.1863L1.92158 12.7652L1.88707 12.6502L1.82975 12.7557L0.903432 14.461L0.903407 14.461L0.902647 14.4625C0.845881 14.576 0.75157 14.6518 0.63682 14.69C0.526503 14.7268 0.414167 14.7097 0.296045 14.6506C0.144428 14.5748 0.05 14.4236 0.05 14.2533C0.05 14.1779 0.0687053 14.1016 0.107488 14.0238L1.62284 11.2456L1.62287 11.2456L1.62367 11.244C1.73594 11.0195 2.01949 10.9405 2.25054 11.0555L5.02777 12.5703C5.12571 12.6293 5.22015 12.7256 5.25749 12.8365C5.29525 12.9696 5.27673 13.0827 5.21844 13.1993C5.10616 13.4239 4.82258 13.5029 4.59153 13.3879L2.88702 12.462L2.7804 12.404L2.81527 12.5203L2.94149 12.941C2.94151 12.9411 2.94152 12.9411 2.94154 12.9412C3.769 15.7628 6.3997 17.6723 9.30672 17.5875L9.30672 17.5875L9.30942 17.5873Z" fill="#95989C" stroke="white" stroke-width="0.1"/>
<path d="M8.75475 1.62287L8.75476 1.62284L5.97662 0.107489C5.89879 0.0687058 5.82245 0.05 5.74713 0.05C5.57674 0.05 5.42555 0.144428 5.34974 0.296045C5.29068 0.414167 5.27358 0.526503 5.31035 0.63682C5.3486 0.75157 5.42438 0.845881 5.53791 0.902647L5.53943 0.903407L5.53942 0.903432L7.24468 1.82975L7.3502 1.88707L7.23518 1.92158L6.81413 2.04789L6.81398 2.04793C3.57226 3.00999 1.37677 6.0215 1.48131 9.36686L1.48136 9.36842C1.48134 9.49765 1.55597 9.63001 1.6696 9.70577L1.67406 9.70874L1.67387 9.70896C1.7853 9.80181 1.93573 9.82184 2.06993 9.78359C2.25951 9.72655 2.41096 9.5365 2.39204 9.30942L2.39178 9.30636L2.39188 9.30636C2.32823 6.39965 4.23757 3.76902 7.05921 2.94154L8.75475 1.62287ZM8.75475 1.62287L8.75635 1.62367C8.98089 1.73594 9.05993 2.01949 8.9449 2.25055L7.43005 5.02777C7.36924 5.12892 7.29364 5.22042 7.16497 5.25719C7.03141 5.29535 6.91796 5.27689 6.80107 5.21844C6.57652 5.10616 6.49748 4.82259 6.61253 4.59153L7.53843 2.88702L7.59635 2.7804L7.48013 2.81527L7.05937 2.94149L8.75475 1.62287Z" fill="#95989C" stroke="white" stroke-width="0.1"/>
<path d="M18.3775 8.75672L18.3775 8.7567L18.3767 8.7583C18.2644 8.98284 17.9809 9.06188 17.7498 8.94686L14.9726 7.43201C14.8744 7.37289 14.7837 7.27877 14.7656 7.15254L14.7661 7.15247L14.7642 7.14587C14.7261 7.01231 14.7445 6.89886 14.803 6.78197C14.9152 6.55742 15.1988 6.47838 15.4299 6.59343L17.1344 7.51933L17.241 7.57725L17.2061 7.46103L17.0799 7.04018C17.0799 7.04014 17.0799 7.04011 17.0798 7.04007C16.2523 4.23937 13.6216 2.33019 10.694 2.39383L10.694 2.39373L10.6909 2.39399C10.4638 2.41291 10.2738 2.26146 10.2168 2.07187C10.1785 1.93768 10.1985 1.78725 10.2914 1.67583L10.2916 1.67601L10.2946 1.67155C10.3703 1.55792 10.5027 1.48329 10.6319 1.48329V1.48332L10.6335 1.48327C13.9789 1.37872 16.9904 3.57421 17.9524 6.81594L17.9525 6.81608L18.0788 7.23713L18.1133 7.35215L18.1706 7.24663L19.0969 5.54137L19.0969 5.54138L19.0977 5.53986C19.1545 5.42633 19.2488 5.35055 19.3635 5.3123C19.4738 5.27553 19.5862 5.29264 19.7043 5.3517C19.8559 5.42751 19.9503 5.5787 19.9503 5.74908C19.9503 5.8244 19.9316 5.90075 19.8929 5.97858L18.3775 8.75672Z" fill="#95989C" stroke="white" stroke-width="0.1"/>
<path d="M7.31093 10.3199L7.31097 10.3198L7.30805 10.3169C7.06668 10.0755 7.0897 9.65712 7.33278 9.43835L7.33292 9.4385L7.3385 9.43292C7.57988 9.19154 7.99829 9.21456 8.21707 9.45765L8.21703 9.45767L8.21951 9.46029L9.25474 10.5564L9.36493 10.6731L9.47391 10.5553L11.725 8.12169C11.9788 7.86985 12.3693 7.85546 12.607 8.09321L12.6145 8.10075L12.6231 8.10714C12.9081 8.32095 12.9162 8.73386 12.6937 8.98206L9.86486 12.0238C9.73971 12.148 9.56514 12.2216 9.39424 12.2216C9.22314 12.2216 9.04837 12.1478 8.92319 12.0234L7.31093 10.3199Z" fill="#95989C" stroke="white" stroke-width="0.3"/>
</svg>
