<svg width="21" height="20" viewBox="0 0 21 20" fill="none" xmlns="http://www.w3.org/2000/svg">
<path d="M15.5878 13.3088L15.9791 13.7007L15.6831 13.9973L15.1994 13.5138C15.0798 13.5896 14.9661 13.6743 14.8594 13.7673L18.8794 17.787C18.9734 17.6782 19.0581 17.5654 19.1328 17.447L18.6487 16.9635L18.9459 16.667L19.3378 17.0588C19.7887 16.0163 19.5906 14.7604 18.7384 13.9082C17.8862 13.056 16.6303 12.8582 15.5878 13.3088ZM15.9791 14.2938L16.2759 13.9973L16.8687 14.5907L16.5728 14.8876L15.9791 14.2938ZM16.8691 15.1838L17.1662 14.8879L17.7587 15.4807L17.4628 15.777L16.8691 15.1838ZM18.3528 16.667L17.7591 16.0738L18.0559 15.7773L18.6487 16.3704L18.3528 16.667Z" fill="#212121"/>
<path d="M14.3087 14.4028L14.7927 14.8869L14.4959 15.1828L14.104 14.7909C13.653 15.8338 13.8509 17.09 14.703 17.9419C15.5552 18.7937 16.8112 18.9916 17.854 18.5406L17.4624 18.1491L17.7584 17.8522L18.2424 18.3359C18.3605 18.2616 18.4737 18.1766 18.5824 18.0825L14.5618 14.0625C14.468 14.1712 14.3837 14.2844 14.3087 14.4028ZM17.4621 17.5559L17.1655 17.8522L16.5724 17.2594L16.8684 16.9628L17.4621 17.5559ZM16.5724 16.6659L16.2755 16.9625L15.6827 16.3694L15.9787 16.0728L16.5724 16.6659ZM15.6824 15.7759L15.3852 16.0725L14.7927 15.4797L15.0887 15.1828L15.6824 15.7759Z" fill="#212121"/>
<path d="M16.2562 7.92063C16.2562 7.7625 16.1934 7.61063 16.0809 7.49875L15.4353 6.8525C15.4322 6.82594 15.4269 6.8 15.4265 6.77281C15.4244 6.66246 15.4446 6.55281 15.4859 6.45045C15.5272 6.34809 15.5887 6.25514 15.6669 6.17719L19.875 1.96844L19.8409 1.84312C19.7657 1.55918 19.6168 1.30013 19.4094 1.09219C19.2015 0.884923 18.9429 0.735888 18.6594 0.66L18.5334 0.625L14.3241 4.83469C14.1453 5.01344 13.8884 5.085 13.6403 5.0575L13.0025 4.42C12.9471 4.36456 12.8814 4.32058 12.809 4.29058C12.7367 4.26057 12.6591 4.24513 12.5808 4.24513C12.5024 4.24513 12.4249 4.26057 12.3525 4.29058C12.2801 4.32058 12.2144 4.36456 12.159 4.42L1.38468 15.1944C1.14905 15.43 0.953738 15.8819 1.36061 16.6969C1.58249 17.1406 1.9553 17.6356 2.41061 18.0909C2.71186 18.3919 3.76311 19.375 4.64343 19.375C4.9778 19.375 5.18874 19.2344 5.30686 19.1163L16.0809 8.34219C16.1934 8.23031 16.2562 8.07875 16.2562 7.92063ZM14.6406 5.15094L18.315 1.47656C18.4678 1.54469 18.6122 1.63781 18.7381 1.76344C18.8637 1.88906 18.9562 2.03344 19.0244 2.18625L15.3503 5.86062C15.1919 6.01894 15.0788 6.2167 15.0225 6.43344L15.0122 6.42937L14.0712 5.48812L14.0672 5.47875C14.2841 5.42254 14.4821 5.30937 14.6406 5.15094ZM1.91249 15.5103L12.5806 4.84188L14.0075 6.26813L4.77186 15.5041C4.55905 15.7169 4.0903 15.9328 3.78936 15.9109C3.35343 15.8784 1.91249 15.5103 1.91249 15.5103ZM4.99124 18.5888C4.99124 18.5888 4.62311 17.1481 4.59093 16.7109C4.56874 16.4109 4.78499 15.9416 4.99749 15.7291C7.30593 13.4194 14.2331 6.49312 14.2331 6.49312L15.659 7.92L4.99124 18.5888Z" fill="#212121"/>
</svg>
