<svg width="18" height="14" viewBox="0 0 18 14" fill="none" xmlns="http://www.w3.org/2000/svg">
<path d="M2.33268 13.6654C1.87435 13.6654 1.47852 13.5056 1.14518 13.1862C0.825738 12.8529 0.666016 12.457 0.666016 11.9987V1.9987C0.666016 1.54036 0.825738 1.15148 1.14518 0.832031C1.47852 0.498698 1.87435 0.332031 2.33268 0.332031H15.666C16.1243 0.332031 16.5132 0.498698 16.8327 0.832031C17.166 1.15148 17.3327 1.54036 17.3327 1.9987V11.9987C17.3327 12.457 17.166 12.8529 16.8327 13.1862C16.5132 13.5056 16.1243 13.6654 15.666 13.6654H2.33268ZM8.99935 7.83203L15.666 3.66537V1.9987L8.99935 6.16537L2.33268 1.9987V3.66537L8.99935 7.83203Z" fill="#95989C"/>
</svg>
