<svg width="20" height="20" viewBox="0 0 20 20" fill="none" xmlns="http://www.w3.org/2000/svg">
<g opacity="0.5" clip-path="url(#clip0_1280_4751)">
<path d="M14.9507 14.9487C13.5261 16.0346 11.7916 16.6361 10.0007 16.6654C4.16732 16.6654 0.833984 9.99872 0.833984 9.99872C1.87056 8.06696 3.30826 6.37923 5.05065 5.04872M8.25065 3.53205C8.82426 3.39778 9.41154 3.33067 10.0007 3.33205C15.834 3.33205 19.1673 9.99872 19.1673 9.99872C18.6615 10.9451 18.0582 11.836 17.3673 12.6571M11.7673 11.7654C11.5384 12.011 11.2624 12.208 10.9558 12.3447C10.6491 12.4813 10.3181 12.5548 9.98239 12.5607C9.64672 12.5666 9.31329 12.5049 9.00199 12.3791C8.6907 12.2534 8.40792 12.0662 8.17052 11.8288C7.93313 11.5915 7.74598 11.3087 7.62024 10.9974C7.49451 10.6861 7.43276 10.3527 7.43868 10.017C7.4446 9.6813 7.51808 9.35026 7.65472 9.04359C7.79135 8.73693 7.98836 8.46093 8.23398 8.23205" stroke="#212121" stroke-width="1.5" stroke-linecap="round" stroke-linejoin="round"/>
<path d="M0.833984 0.832031L19.1673 19.1654" stroke="#212121" stroke-width="1.5" stroke-linecap="round" stroke-linejoin="round"/>
</g>
<defs>
<clipPath id="clip0_1280_4751">
<rect width="20" height="20" fill="white"/>
</clipPath>
</defs>
</svg>
