<svg width="20" height="20" viewBox="0 0 20 20" fill="none" xmlns="http://www.w3.org/2000/svg">
<g clip-path="url(#clip0_1045_6754)">
<path d="M17.071 2.92894C15.1823 1.04015 12.6711 0 9.99994 0C7.32881 0 4.81765 1.04015 2.92894 2.92894C1.04019 4.81765 0 7.32885 0 9.99994C0 12.671 1.04019 15.1822 2.92894 17.071C4.81765 18.9598 7.32889 20 10 20C12.6711 20 15.1823 18.9598 17.0711 17.071C18.9599 15.1823 20 12.6711 20 9.99994C20 7.32881 18.9597 4.81765 17.071 2.92894ZM16.9992 3.86866L15.7293 7.77725L13.6848 8.46545L10.3451 6.03901V3.85937L13.669 1.44441C14.9535 1.99746 16.0895 2.8314 16.9992 3.86866ZM13.2202 8.98127L11.9902 12.7669H8.00979L6.77975 8.98127L9.99998 6.64163L13.2202 8.98127ZM9.99994 0.69035C11.0109 0.69035 11.9845 0.852967 12.8966 1.15234L9.99994 3.25691L7.10327 1.1523C8.01541 0.852928 8.98901 0.69035 9.99994 0.69035ZM6.33092 1.44449L9.65482 3.85945V6.03909L6.31522 8.46549L4.27069 7.77729L3.00074 3.86866C3.9105 2.8314 5.0464 1.99746 6.33092 1.44449ZM0.69035 9.99994C0.69035 7.94983 1.35699 6.05272 2.48421 4.51296L3.59031 7.91713L0.690741 10.0238C0.690624 10.0159 0.69035 10.0079 0.69035 9.99994ZM0.729491 10.849L4.0548 8.43299L6.09928 9.12119L7.37584 13.0501L6.113 14.7634H2.00437C1.30765 13.5983 0.858475 12.2693 0.729491 10.849ZM2.45996 15.4537H6.03659L7.14358 18.8607C5.24351 18.2467 3.60874 17.0376 2.45996 15.4537ZM9.99994 19.3096C9.29248 19.3096 8.6033 19.2298 7.94057 19.0796L6.67046 15.1706L7.9333 13.4572H12.0665L13.3294 15.1706L12.0593 19.0796C11.3966 19.2298 10.7074 19.3096 9.99994 19.3096ZM12.8563 18.8607L13.9633 15.4538H17.5399C16.3912 17.0376 14.7565 18.2467 12.8563 18.8607ZM17.9956 14.7634H13.8869L12.6241 13.05L13.9006 9.12111L15.9451 8.43291L19.2704 10.8489C19.1414 12.2693 18.6923 13.5983 17.9956 14.7634ZM16.4097 7.91713L17.5157 4.51296C18.643 6.05272 19.3096 7.94983 19.3096 9.99994C19.3096 10.0079 19.3093 10.0159 19.3093 10.0238L16.4097 7.91713Z" fill="#212121"/>
</g>
<defs>
<clipPath id="clip0_1045_6754">
<rect width="20" height="20" fill="white"/>
</clipPath>
</defs>
</svg>
