<svg width="20" height="20" viewBox="0 0 20 20" fill="none" xmlns="http://www.w3.org/2000/svg">
<g clip-path="url(#clip0_1268_5077)">
<path d="M18.6993 10.6984H19.7993C20.0202 10.6984 20.1993 10.5194 20.1993 10.2984C20.1993 10.0775 20.0202 9.89844 19.7993 9.89844H18.6993C18.4783 9.89844 18.2993 10.0775 18.2993 10.2984C18.2993 10.5194 18.4783 10.6984 18.6993 10.6984ZM6.37914 10.6984H13.9793C14.2003 10.6984 14.3793 10.5194 14.3793 10.2984C14.3793 10.0775 14.2003 9.89844 13.9793 9.89844H6.37914C6.15822 9.89844 5.97914 10.0775 5.97914 10.2984C5.97914 10.5194 6.15822 10.6984 6.37914 10.6984ZM0.599219 10.6984H1.69922C1.92014 10.6984 2.09922 10.5194 2.09922 10.2984C2.09922 10.0775 1.92014 9.89844 1.69922 9.89844H0.599219C0.378301 9.89844 0.199219 10.0775 0.199219 10.2984C0.199219 10.5194 0.378301 10.6984 0.599219 10.6984Z" fill="white"/>
<path d="M15.4 15.3992C14.6291 15.3992 14 14.7701 14 13.9992V6.59922C14 5.8283 14.6291 5.19922 15.4 5.19922C16.1709 5.19922 16.8 5.8283 16.8 6.59922V13.9992C16.8 14.7701 16.1709 15.3992 15.4 15.3992ZM15.4 14.5992C15.7291 14.5992 16 14.3283 16 13.9992V6.59922C16 6.27014 15.7291 5.99922 15.4 5.99922C15.0709 5.99922 14.8 6.27014 14.8 6.59922V13.9992C14.8 14.3283 15.0709 14.5992 15.4 14.5992Z" fill="white"/>
<path d="M17.3996 12.6992C16.6287 12.6992 15.9996 12.0701 15.9996 11.2992V9.29922C15.9996 8.5283 16.6287 7.89922 17.3996 7.89922C18.1705 7.89922 18.7996 8.5283 18.7996 9.29922V11.2992C18.7996 12.0701 18.1705 12.6992 17.3996 12.6992ZM17.3996 11.8992C17.7287 11.8992 17.9996 11.6283 17.9996 11.2992V9.29922C17.9996 8.97014 17.7287 8.69922 17.3996 8.69922C17.0705 8.69922 16.7996 8.97014 16.7996 9.29922V11.2992C16.7996 11.6283 17.0705 11.8992 17.3996 11.8992ZM4.99961 14.5992C5.32869 14.5992 5.59961 14.3283 5.59961 13.9992V6.59922C5.59961 6.27014 5.32869 5.99922 4.99961 5.99922C4.67053 5.99922 4.39961 6.27014 4.39961 6.59922V13.9992C4.39961 14.3283 4.67053 14.5992 4.99961 14.5992ZM4.99961 15.3992C4.22869 15.3992 3.59961 14.7701 3.59961 13.9992V6.59922C3.59961 5.8283 4.22869 5.19922 4.99961 5.19922C5.77053 5.19922 6.39961 5.8283 6.39961 6.59922V13.9992C6.39961 14.7701 5.77053 15.3992 4.99961 15.3992Z" fill="white"/>
<path d="M2.99961 11.8984C3.32869 11.8984 3.59961 11.6275 3.59961 11.2984V9.29844C3.59961 8.96936 3.32869 8.69844 2.99961 8.69844C2.67053 8.69844 2.39961 8.96936 2.39961 9.29844V11.2984C2.39961 11.6275 2.67053 11.8984 2.99961 11.8984ZM2.99961 12.6984C2.22869 12.6984 1.59961 12.0694 1.59961 11.2984V9.29844C1.59961 8.52752 2.22869 7.89844 2.99961 7.89844C3.77053 7.89844 4.39961 8.52752 4.39961 9.29844V11.2984C4.39961 12.0694 3.77053 12.6984 2.99961 12.6984Z" fill="white"/>
</g>
<defs>
<clipPath id="clip0_1268_5077">
<rect width="20" height="20" fill="white"/>
</clipPath>
</defs>
</svg>
