<svg width="19" height="20" viewBox="0 0 19 20" fill="none" xmlns="http://www.w3.org/2000/svg">
<path d="M17.6594 17.0796H14.7579C14.627 17.0796 14.5046 17.0095 14.436 16.893L11.6605 12.2961L18.2556 1.12932C18.3063 1.04344 18.3208 0.941019 18.2959 0.844438C18.2711 0.747914 18.2089 0.665155 18.123 0.614435L17.1711 0.0522964C16.9922 -0.0533071 16.7617 0.00608761 16.6562 0.18485L10.5701 10.4902L10.3329 10.0972C10.297 10.0378 10.2453 9.98937 10.1835 9.95751L9.45577 9.58182L4.01315 0.321163C3.9626 0.235165 3.87996 0.172821 3.78343 0.147721C3.68697 0.122737 3.58443 0.137022 3.49837 0.187626L2.43794 0.811762C2.25912 0.917019 2.19938 1.14731 2.30452 1.32625L7.75218 10.5955L7.76623 11.3981C7.76739 11.4642 7.78595 11.5288 7.82002 11.5854L8.88183 13.3491L7.04147 16.465C6.76103 16.9399 6.24418 17.2349 5.69262 17.2349H1.16717C0.732498 17.2349 0.378906 17.5883 0.378906 18.0226V19.1914C0.378906 19.6261 0.732498 19.9797 1.16717 19.9797H5.94825C6.67278 19.9797 7.35168 19.592 7.72008 18.968L9.97072 15.1577L12.4337 19.2486C12.7064 19.7121 13.21 20.0001 13.7477 20.0001H17.6595C18.1889 20.0001 18.6196 19.5693 18.6196 19.0399V18.0398C18.6195 17.5102 18.1888 17.0796 17.6594 17.0796ZM13.9561 6.93075L13.7106 7.34657L13.4259 7.13311L13.6715 6.71729L13.9561 6.93075ZM14.0561 6.06597L14.3135 5.63008L14.5982 5.8436L14.3408 6.27943L14.0561 6.06597ZM17.1124 0.89082L17.417 1.07062L14.9828 5.19222L14.6981 4.97876L17.1124 0.89082ZM13.0412 7.78437L13.3259 7.99783L11.2191 11.565L11.0115 11.2212L13.0412 7.78437ZM3.14304 1.26917L3.55551 1.02644L8.58955 9.59183L8.19362 9.86272L3.14304 1.26917ZM2.9467 17.9868V19.2279H2.4262V17.9868H2.9467ZM1.13074 19.1914V18.0226C1.13074 18.0029 1.1471 17.9868 1.16717 17.9868H1.67437V19.2279H1.16717C1.1471 19.2279 1.13074 19.2115 1.13074 19.1914ZM7.07264 18.5857C6.83882 18.9818 6.40796 19.2279 5.94825 19.2279H3.69853V17.9868H5.69262C6.50894 17.9868 7.27384 17.5501 7.68885 16.8472L9.32258 14.0811L9.52997 14.4256L7.07264 18.5857ZM13.0797 18.8641L8.51616 11.284L8.50349 10.5617L9.02434 10.2053L9.74413 10.5769L13.7901 17.2781C13.9911 17.6194 14.3618 17.8314 14.7579 17.8314H16.3883V19.2482H13.7476C13.4751 19.2482 13.2198 19.1022 13.0797 18.8641ZM17.8677 19.0399C17.8677 19.1547 17.7742 19.2482 17.6594 19.2482H17.1401V17.8314H17.6594C17.7742 17.8314 17.8677 17.9248 17.8677 18.0397V19.0399Z" fill="black"/>
</svg>
