<svg width="20" height="20" viewBox="0 0 20 20" fill="none" xmlns="http://www.w3.org/2000/svg">
<path d="M4.67143 14.806C4.79542 14.806 4.91235 14.7482 4.98773 14.6498C4.99853 14.6357 6.0792 13.2213 7.1447 11.5358C8.60331 9.22851 9.34287 7.52357 9.34287 6.46831C9.34287 3.89245 7.24725 1.79688 4.67143 1.79688C2.09562 1.79688 0 3.89245 0 6.46827C0 7.52353 0.739562 9.22851 2.19817 11.5358C3.26367 13.2212 4.34434 14.6357 4.35514 14.6498C4.43056 14.7482 4.54745 14.806 4.67143 14.806ZM0.796813 6.46827C0.796813 4.33182 2.53498 2.59365 4.67143 2.59365C6.80789 2.59365 8.54606 4.33182 8.54606 6.46827C8.54606 8.14524 5.98972 11.9567 4.67139 13.7439C3.35299 11.9569 0.796813 8.146 0.796813 6.46827Z" fill="#95989C"/>
<path d="M7.47197 6.46841C7.47197 4.92426 6.21572 3.66797 4.67153 3.66797C3.12735 3.66797 1.87109 4.92422 1.87109 6.46841C1.87109 8.01259 3.12735 9.26885 4.67153 9.26885C6.21572 9.26885 7.47197 8.01259 7.47197 6.46841ZM2.66795 6.46841C2.66795 5.36363 3.56675 4.46478 4.67157 4.46478C5.77639 4.46478 6.6752 5.36359 6.6752 6.46841C6.6752 7.57323 5.77639 8.47203 4.67157 8.47203C3.56675 8.47203 2.66795 7.57323 2.66795 6.46841Z" fill="#95989C"/>
<path d="M5.07003 5.26169C5.07003 5.04165 4.89167 4.86328 4.67163 4.86328C3.78653 4.86328 3.06641 5.58336 3.06641 6.4685C3.06641 6.68854 3.24477 6.86691 3.46481 6.86691C3.68485 6.86691 3.86322 6.68854 3.86322 6.4685C3.86322 6.02276 4.22585 5.66009 4.67163 5.66009C4.89167 5.66009 5.07003 5.48173 5.07003 5.26169Z" fill="#95989C"/>
<path d="M15.3277 1.79688C12.7518 1.79688 10.6562 3.89249 10.6562 6.46831C10.6562 7.52357 11.3958 9.22855 12.8544 11.5358C13.9199 13.2213 15.0006 14.6357 15.0114 14.6498C15.0868 14.7483 15.2037 14.806 15.3277 14.806C15.4517 14.806 15.5686 14.7482 15.644 14.6498C15.6548 14.6357 16.7355 13.2213 17.801 11.5358C19.2596 9.22855 19.9992 7.52361 19.9992 6.46831C19.9992 3.89249 17.9035 1.79688 15.3277 1.79688ZM15.3277 13.744C14.0092 11.957 11.4531 8.14604 11.4531 6.46831C11.4531 4.33186 13.1912 2.59369 15.3277 2.59369C17.4642 2.59369 19.2023 4.33186 19.2023 6.46831C19.2023 8.14528 16.646 11.9568 15.3277 13.744Z" fill="#95989C"/>
<path d="M15.3277 3.66797C13.7836 3.66797 12.5273 4.92422 12.5273 6.46841C12.5273 8.01259 13.7836 9.26885 15.3277 9.26885C16.8719 9.26885 18.1282 8.01259 18.1282 6.46841C18.1282 4.92422 16.8719 3.66797 15.3277 3.66797ZM15.3277 8.47199C14.223 8.47199 13.3242 7.57319 13.3242 6.46837C13.3242 5.36355 14.223 4.46474 15.3277 4.46474C16.4325 4.46474 17.3314 5.36355 17.3314 6.46837C17.3314 7.57319 16.4326 8.47199 15.3277 8.47199Z" fill="#95989C"/>
<path d="M15.3058 15.4922C14.5588 15.4922 13.9512 16.0998 13.9512 16.8468C13.9512 17.5937 14.5588 18.2014 15.3058 18.2014C16.0527 18.2014 16.6603 17.5937 16.6603 16.8468C16.6603 16.0998 16.0526 15.4922 15.3058 15.4922ZM15.3058 17.4045C14.9982 17.4045 14.748 17.1543 14.748 16.8468C14.748 16.5392 14.9982 16.289 15.3058 16.289C15.6133 16.289 15.8635 16.5392 15.8635 16.8468C15.8635 17.1543 15.6133 17.4045 15.3058 17.4045Z" fill="#95989C"/>
<path d="M12.8745 16.4453H11.7988C11.5788 16.4453 11.4004 16.6237 11.4004 16.8437C11.4004 17.0638 11.5788 17.2421 11.7988 17.2421H12.8745C13.0945 17.2421 13.2729 17.0638 13.2729 16.8437C13.2729 16.6237 13.0945 16.4453 12.8745 16.4453Z" fill="#95989C"/>
<path d="M10.4041 16.4484H5.96178C5.79123 15.8953 5.27537 15.4922 4.66708 15.4922C3.92015 15.4922 3.3125 16.0998 3.3125 16.8468C3.3125 17.5937 3.92015 18.2014 4.66708 18.2014C5.27537 18.2014 5.79127 17.7982 5.96178 17.2452H10.4041C10.6242 17.2452 10.8025 17.0668 10.8025 16.8468C10.8025 16.6267 10.6242 16.4484 10.4041 16.4484ZM4.66708 17.4045C4.35951 17.4045 4.10931 17.1543 4.10931 16.8468C4.10931 16.5392 4.35951 16.289 4.66708 16.289C4.97465 16.289 5.22485 16.5392 5.22485 16.8468C5.22485 17.1543 4.97465 17.4045 4.66708 17.4045Z" fill="#95989C"/>
</svg>
