<svg width="20" height="20" viewBox="0 0 20 20" fill="none" xmlns="http://www.w3.org/2000/svg">
<g clip-path="url(#clip0_1296_4822)">
<path d="M16.8945 16.7754L16.013 11.4945C15.7817 10.1112 14.5842 9.097 13.1826 9.097H11.7463C13.4866 8.40316 14.7182 6.70585 14.7182 4.71722C14.7182 2.11122 12.6063 0 10.0016 0C7.39686 0 5.28501 2.11185 5.28501 4.71659C5.28501 6.70521 6.51724 8.40253 8.25816 9.09637H6.81993C5.41708 9.09637 4.22024 10.11 3.98959 11.4938L3.10808 16.7747C2.97411 17.5779 3.20034 18.3981 3.72672 19.0199C4.2531 19.6417 5.0253 20 5.83983 20H14.1634C14.9779 20 15.7507 19.6417 16.2771 19.0199C16.8022 18.3994 17.0285 17.5779 16.8945 16.7754ZM6.9046 4.69953C6.9046 2.98957 8.29102 1.60316 10.001 1.60316C11.7116 1.60316 13.098 2.98957 13.098 4.69953C13.098 6.41011 11.7116 7.79652 10.001 7.79652C8.29102 7.79652 6.9046 6.41011 6.9046 4.69953Z" fill="#212121"/>
</g>
<defs>
<clipPath id="clip0_1296_4822">
<rect width="20" height="20" fill="white"/>
</clipPath>
</defs>
</svg>
