<svg width="20" height="20" viewBox="0 0 20 20" fill="none" xmlns="http://www.w3.org/2000/svg">
<g clip-path="url(#clip0_1296_5056)">
<path d="M6.34266 12.5928C6.67964 12.5925 7.00629 12.7091 7.26697 12.9227C7.52765 13.1362 7.70622 13.4335 7.77228 13.764C7.83833 14.0944 7.78778 14.4375 7.62922 14.7349C7.47067 15.0322 7.21393 15.2654 6.90274 15.3947C6.59155 15.524 6.24516 15.5414 5.92258 15.444C5.59999 15.3465 5.32117 15.1403 5.13361 14.8603C4.94605 14.5803 4.86136 14.244 4.89395 13.9086C4.92655 13.5732 5.07443 13.2595 5.31238 13.0209C5.58616 12.7485 5.95645 12.5952 6.34266 12.5944V12.5928ZM6.34266 13.3285C6.48526 13.3285 6.62467 13.3708 6.74324 13.45C6.86181 13.5292 6.95423 13.6418 7.0088 13.7736C7.06337 13.9053 7.07765 14.0503 7.04983 14.1902C7.02201 14.33 6.95334 14.4585 6.8525 14.5594C6.75166 14.6602 6.62319 14.7289 6.48332 14.7567C6.34346 14.7845 6.19848 14.7702 6.06673 14.7157C5.93498 14.6611 5.82237 14.5687 5.74314 14.4501C5.66392 14.3315 5.62163 14.1921 5.62163 14.0495C5.62141 13.9548 5.63992 13.8609 5.67608 13.7733C5.71224 13.6858 5.76534 13.6062 5.83233 13.5392C5.89933 13.4722 5.9789 13.4191 6.06648 13.3829C6.15405 13.3468 6.24791 13.3283 6.34266 13.3285ZM7.106 13.2845C6.9292 13.1072 6.69636 12.9966 6.44715 12.9716C6.19795 12.9467 5.94781 13.009 5.73937 13.1478C5.53094 13.2866 5.37709 13.4935 5.30407 13.733C5.23105 13.9726 5.24337 14.2301 5.33892 14.4616C5.43448 14.6931 5.60736 14.8843 5.8281 15.0026C6.04884 15.1209 6.30378 15.159 6.54947 15.1104C6.79515 15.0618 7.01638 14.9295 7.17544 14.736C7.3345 14.5426 7.42155 14.3 7.42176 14.0495C7.42223 13.9075 7.39457 13.7667 7.34038 13.6354C7.28618 13.5042 7.20653 13.3849 7.106 13.2845ZM7.74077 2.99781e-05C8.07819 -0.00213391 8.4059 0.112909 8.66793 0.325511C8.92996 0.538113 9.11005 0.835088 9.17746 1.16572C9.24486 1.49635 9.19539 1.84012 9.0375 2.13833C8.87961 2.43654 8.62309 2.67069 8.31175 2.80079C8.00041 2.93088 7.65356 2.94886 7.33044 2.85165C7.00732 2.75444 6.72796 2.54806 6.54009 2.26778C6.35221 1.98749 6.26747 1.65067 6.30033 1.31484C6.33319 0.979018 6.48162 0.665015 6.72026 0.426462C6.99094 0.155387 7.3577 0.00213449 7.74077 2.99781e-05ZM7.74077 0.735707C7.8831 0.735395 8.02233 0.777212 8.14093 0.85589C8.25954 0.934568 8.3522 1.04659 8.40726 1.17783C8.46231 1.30908 8.47729 1.45369 8.4503 1.59343C8.42332 1.73318 8.35558 1.86181 8.25562 1.96313C8.15566 2.06445 8.02795 2.13391 7.88858 2.16278C7.74922 2.19164 7.60442 2.17862 7.47244 2.12534C7.34046 2.07206 7.2272 1.98091 7.14693 1.86338C7.06667 1.74585 7.02297 1.60719 7.02137 1.46487C7.02137 1.27393 7.09711 1.09078 7.23198 0.955604C7.36684 0.820432 7.54982 0.744276 7.74077 0.743845V0.735707ZM8.51063 0.691762C8.33513 0.513457 8.10329 0.401453 7.85453 0.374803C7.60577 0.348153 7.35546 0.408502 7.14617 0.545584C6.93689 0.682667 6.78156 0.888017 6.7066 1.12671C6.63164 1.3654 6.64168 1.62268 6.73502 1.8548C6.82835 2.08692 6.99922 2.27954 7.21855 2.39989C7.43789 2.52024 7.69214 2.5609 7.93806 2.51494C8.18399 2.46898 8.4064 2.33925 8.56746 2.1478C8.72852 1.95636 8.81829 1.71504 8.8215 1.46487C8.82342 1.32185 8.79693 1.17986 8.74357 1.04715C8.69021 0.91444 8.61103 0.793642 8.51063 0.691762ZM12.954 9.40595C13.2912 9.40493 13.6183 9.52093 13.8796 9.73417C14.1408 9.94741 14.32 10.2447 14.3865 10.5753C14.453 10.9059 14.4028 11.2493 14.2444 11.547C14.0859 11.8447 13.8292 12.0782 13.5178 12.2077C13.2064 12.3372 12.8598 12.3546 12.537 12.2571C12.2142 12.1595 11.9352 11.953 11.7477 11.6727C11.5602 11.3924 11.4757 11.0558 11.5087 10.7202C11.5417 10.3845 11.6901 10.0708 11.9286 9.83239C12.0636 9.69718 12.224 9.58993 12.4005 9.51676C12.577 9.44358 12.7662 9.40593 12.9572 9.40595H12.954ZM12.954 10.1416C13.0967 10.1413 13.2362 10.1833 13.355 10.2624C13.4738 10.3414 13.5665 10.4539 13.6213 10.5856C13.6761 10.7173 13.6906 10.8624 13.663 11.0023C13.6353 11.1423 13.5668 11.2709 13.466 11.3719C13.3653 11.4729 13.2368 11.5418 13.0969 11.5697C12.957 11.5977 12.8119 11.5835 12.6801 11.529C12.5482 11.4744 12.4355 11.382 12.3562 11.2634C12.2769 11.1448 12.2346 11.0053 12.2346 10.8627C12.2346 10.6717 12.3103 10.4886 12.4452 10.3534C12.5801 10.2182 12.763 10.1421 12.954 10.1416ZM13.719 10.0912C13.5422 9.91379 13.3093 9.80321 13.0601 9.77828C12.8109 9.75334 12.5608 9.8156 12.3523 9.95444C12.1439 10.0933 11.9901 10.3001 11.917 10.5397C11.844 10.7792 11.8563 11.0367 11.9519 11.2682C12.0474 11.4997 12.2203 11.6909 12.4411 11.8092C12.6618 11.9275 12.9167 11.9656 13.1624 11.917C13.4081 11.8684 13.6293 11.7361 13.7884 11.5427C13.9475 11.3492 14.0345 11.1066 14.0347 10.8561C14.0351 10.7141 14.0074 10.5734 13.9532 10.4421C13.899 10.3109 13.8194 10.1916 13.719 10.0912ZM2.87749 5.99775C2.17436 5.55342 1.87814 5.18558 2.04578 4.55732C2.127 4.25641 2.32428 4.00001 2.59433 3.84439C2.86438 3.68877 3.18514 3.64664 3.48621 3.72724L7.76356 6.18493L8.6213 6.38838C9.56051 6.67196 10.5612 6.68099 11.5054 6.41442L12.6447 6.14912L16.7577 3.78747C17.059 3.70737 17.3797 3.74992 17.6497 3.9058C17.9197 4.06168 18.1169 4.3182 18.1981 4.61917C18.3609 5.2458 17.9638 5.7178 17.3664 6.0596L12.9719 8.57913L12.9817 8.82164H12.9507C12.6955 8.82247 12.4427 8.87105 12.2053 8.96487L12.1711 8.97789C11.924 9.08074 11.6994 9.23116 11.5103 9.4206C11.3295 9.60172 11.1839 9.81472 11.0806 10.0489L11.066 10.083C10.8616 10.5772 10.8593 11.1318 11.0595 11.6276C11.2598 12.1234 11.6467 12.5209 12.1369 12.7344L12.1711 12.7491C12.4176 12.8545 12.6826 12.9098 12.9507 12.9118C13.0686 12.9122 13.1863 12.9019 13.3023 12.8809C13.5074 15.0423 13.7255 17.2152 13.7255 19.1765C13.7255 20.1905 11.5689 20.376 11.3654 19.1765L10.5793 13.3464H9.65971L8.87521 19.1634C8.74175 20.3028 6.4452 20.236 6.51356 19.1634L6.72026 16.0547C6.85692 16.0282 6.99053 15.9878 7.11902 15.9343C7.35086 15.838 7.5628 15.6995 7.74402 15.5257L7.78146 15.4916C7.96213 15.3111 8.10685 15.0979 8.20789 14.8633L8.22417 14.8291C8.32946 14.5826 8.38478 14.3176 8.38693 14.0495C8.3857 13.7808 8.33034 13.5151 8.22417 13.2683C8.12215 13.0211 7.97224 12.7965 7.78309 12.6075C7.60245 12.4277 7.38996 12.2831 7.15646 12.181L7.12228 12.1647C7.07833 12.1468 7.03439 12.1306 6.98882 12.1159L7.23296 8.49612L2.87749 5.99775ZM10.122 0.7471C10.5745 0.747027 11.0175 0.876513 11.3988 1.12025C11.7801 1.36399 12.0836 1.71179 12.2734 2.12254C12.4633 2.53329 12.5316 2.98981 12.4703 3.43814C12.4089 3.88647 12.2205 4.30787 11.9273 4.65252C11.634 4.99717 11.2483 5.25066 10.8155 5.38303C10.3828 5.5154 9.92126 5.52111 9.4854 5.39948C9.04954 5.27786 8.65762 5.03399 8.35595 4.6967C8.05429 4.35941 7.8555 3.9428 7.78309 3.49612C8.29279 3.48562 8.77981 3.28337 9.14702 2.92972L9.18445 2.89554C9.36345 2.718 9.50803 2.50885 9.61089 2.27868L9.62716 2.2445C9.73172 1.99772 9.78701 1.73287 9.78992 1.46487C9.79038 1.23822 9.75241 1.01314 9.67762 0.799184C9.82663 0.76967 9.97819 0.75495 10.1301 0.755238L10.122 0.7471Z" fill="#212121"/>
</g>
<defs>
<clipPath id="clip0_1296_5056">
<rect width="20" height="20" fill="white"/>
</clipPath>
</defs>
</svg>
