<svg width="20" height="20" viewBox="0 0 20 20" fill="none" xmlns="http://www.w3.org/2000/svg">
<g clip-path="url(#clip0_1296_4941)">
<path fill-rule="evenodd" clip-rule="evenodd" d="M0 18.5385C0 13.0155 4.26595 14.9231 5.69661 12.9949C6.74642 15.6169 10.5371 15.3948 11.8213 12.9949C11.9778 13.1733 12.1637 13.3203 12.3698 13.4287C12.2962 13.7316 12.3191 14.0517 12.4349 14.3394L12.4788 14.4341C12.4104 14.4523 12.343 14.4747 12.277 14.5013C11.9431 14.6503 11.6773 14.9313 11.5365 15.2846L11.5039 15.3845C11.46 15.5274 11.4375 15.6766 11.4372 15.8269V16.7342C11.4372 16.9209 11.4721 17.1058 11.5397 17.2782L11.5804 17.366C11.6408 17.5004 11.7204 17.624 11.8164 17.7327L11.8392 17.7568C11.9601 17.885 12.1032 17.9873 12.2607 18.0581L12.3682 18.0994C12.2882 18.2353 12.2299 18.3842 12.1956 18.5402L0 18.5385ZM18.8216 13.656C18.7912 13.6221 18.7546 13.5951 18.714 13.5767C18.6735 13.5583 18.6298 13.5488 18.5856 13.5488C18.5415 13.5488 18.4978 13.5583 18.4572 13.5767C18.4166 13.5951 18.38 13.6221 18.3496 13.656L17.9883 14.0364C17.8907 13.9717 17.789 13.9141 17.6839 13.8643C17.5779 13.8131 17.4692 13.7682 17.3584 13.73V13.1429C17.3593 13.0963 17.3513 13.05 17.3348 13.0068C17.3183 12.9636 17.2936 12.9244 17.2624 12.8916C17.2315 12.8587 17.1947 12.8328 17.1542 12.8153C17.1136 12.7979 17.0701 12.7893 17.0264 12.79H16.333C16.2898 12.7897 16.2469 12.7986 16.207 12.816C16.167 12.8334 16.1307 12.8591 16.1003 12.8916C16.0684 12.9241 16.0432 12.9632 16.0261 13.0064C16.009 13.0496 16.0005 13.0961 16.001 13.1429V13.6766C15.8869 13.705 15.7749 13.7418 15.6657 13.7868C15.559 13.83 15.4552 13.8806 15.3548 13.9383L14.9561 13.5217C14.9268 13.4878 14.891 13.461 14.8512 13.4429C14.8113 13.4248 14.7683 13.4158 14.7249 13.4166C14.6809 13.4164 14.6373 13.4255 14.5968 13.4436C14.5562 13.4616 14.5195 13.4882 14.4889 13.5217L14.0007 14.0382C13.9686 14.0703 13.9432 14.109 13.9257 14.152C13.9083 14.1949 13.8993 14.2411 13.8993 14.2878C13.8993 14.3345 13.9083 14.3807 13.9257 14.4236C13.9432 14.4665 13.9686 14.5053 14.0007 14.5374L14.3604 14.9196C14.2985 15.0224 14.2441 15.1301 14.1976 15.2416C14.1492 15.3537 14.1068 15.4687 14.0706 15.5859H13.5091C13.4228 15.5859 13.34 15.6222 13.2789 15.6867C13.2179 15.7513 13.1836 15.8389 13.1836 15.9302V16.6636C13.1833 16.7093 13.1917 16.7547 13.2082 16.7969C13.2247 16.8392 13.249 16.8776 13.2796 16.9098C13.3098 16.9438 13.3465 16.9707 13.3871 16.9888C13.4278 17.0068 13.4715 17.0157 13.5156 17.0148H14.0218C14.0487 17.1355 14.0835 17.254 14.126 17.3695C14.1672 17.4841 14.2145 17.5962 14.2676 17.7052L13.8753 18.1201C13.8431 18.1509 13.8175 18.1886 13.8004 18.2308C13.7833 18.273 13.7749 18.3187 13.776 18.3646C13.7758 18.4111 13.7844 18.4572 13.8015 18.5001C13.8186 18.5431 13.8437 18.5819 13.8753 18.6142L14.3636 19.1307C14.4277 19.1937 14.5121 19.2288 14.5996 19.2288C14.6872 19.2288 14.7715 19.1937 14.8356 19.1307L15.1953 18.7433C15.2931 18.8087 15.3954 18.8663 15.5013 18.9155C15.6074 18.9665 15.7161 19.0113 15.8268 19.0498V19.6351C15.8268 19.7264 15.8611 19.814 15.9222 19.8786C15.9832 19.9432 16.066 19.9794 16.1523 19.9794H16.8457C16.932 19.9794 17.0148 19.9432 17.0759 19.8786C17.1369 19.814 17.1712 19.7264 17.1712 19.6351V19.11C17.285 19.0814 17.397 19.0452 17.5065 19.0016C17.6156 18.9568 17.7214 18.9052 17.832 18.8501L18.2243 19.265C18.2535 19.2995 18.2894 19.3269 18.3296 19.3454C18.3698 19.3638 18.4132 19.3728 18.457 19.3717C18.501 19.3726 18.5447 19.3635 18.5851 19.3451C18.6255 19.3267 18.6618 19.2994 18.6914 19.265L19.1797 18.7485C19.2393 18.6807 19.2724 18.5915 19.2724 18.4989C19.2724 18.4062 19.2393 18.3171 19.1797 18.2492L18.8135 17.8687C18.8753 17.7653 18.9297 17.6571 18.9762 17.5451C19.0244 17.4328 19.0668 17.3179 19.1032 17.2008H19.6549C19.6991 17.2015 19.743 17.1927 19.7838 17.175C19.8247 17.1572 19.8617 17.1308 19.8926 17.0975C19.9236 17.0648 19.9481 17.0259 19.9646 16.983C19.9811 16.9401 19.9893 16.8941 19.9886 16.8478V16.1196C19.9889 16.0739 19.9805 16.0285 19.964 15.9863C19.9475 15.944 19.9232 15.9056 19.8926 15.8734C19.8617 15.84 19.8247 15.8137 19.7838 15.7959C19.743 15.7781 19.6991 15.7694 19.6549 15.7701H19.1504C19.1223 15.6532 19.0875 15.5382 19.0462 15.4258C19.0057 15.3117 18.9579 15.2007 18.903 15.0935L19.2969 14.6717C19.3286 14.6409 19.3539 14.6034 19.371 14.5616C19.3881 14.5197 19.3967 14.4745 19.3962 14.429C19.3962 14.3822 19.3874 14.3359 19.3704 14.2927C19.3533 14.2496 19.3283 14.2105 19.2969 14.1776L18.8086 13.6611L18.8216 13.656ZM16.5918 14.9592C16.7735 14.9584 16.9534 14.9964 17.1208 15.0711C17.4483 15.2157 17.7082 15.4919 17.8434 15.839C17.9133 16.0163 17.9492 16.2064 17.9492 16.3985C17.9492 16.5906 17.9133 16.7807 17.8434 16.958C17.7075 17.3038 17.4477 17.5786 17.1208 17.7224C16.9532 17.7963 16.7734 17.8343 16.5918 17.8343C16.4102 17.8343 16.2304 17.7963 16.0628 17.7224C15.7359 17.5786 15.4761 17.3038 15.3402 16.958C15.2703 16.7807 15.2344 16.5906 15.2344 16.3985C15.2344 16.2064 15.2703 16.0163 15.3402 15.839C15.4761 15.4932 15.7359 15.2183 16.0628 15.0746C16.2302 14.9999 16.4101 14.9618 16.5918 14.9627V14.9592ZM5.00326 7.23089C4.85058 7.22713 4.69998 7.26889 4.56869 7.3514C4.51357 7.38757 4.46993 7.44032 4.44336 7.5029C4.41188 7.5799 4.39794 7.66364 4.40267 7.74737C4.41081 8.02627 4.54753 8.38953 4.81445 8.80961L5.67871 10.2644C6.02214 10.8549 6.39323 11.4488 6.8457 11.8792C7.29042 12.3342 7.88554 12.5875 8.50423 12.5851C8.82702 12.5918 9.14786 12.5308 9.44819 12.4055C9.74852 12.2802 10.0224 12.0931 10.2539 11.8551C10.7194 11.3938 11.0889 10.7602 11.4502 10.1335L12.4268 8.43602C12.609 7.99701 12.6758 7.70261 12.6335 7.53217C12.6091 7.42887 12.5016 7.37895 12.3193 7.36862C12.2803 7.36862 12.2412 7.36862 12.2005 7.36862L12.0638 7.37722C12.039 7.38071 12.0138 7.38071 11.9889 7.37722C11.8983 7.37733 11.8079 7.36868 11.7188 7.3514L12.054 5.78817C9.57682 6.20136 7.72461 4.25594 5.10742 5.39909L5.29622 7.24122C5.19848 7.24796 5.10035 7.2445 5.00326 7.23089ZM12.653 6.90034C12.7658 6.93131 12.8684 6.99464 12.9494 7.08334C13.0304 7.17205 13.0866 7.28268 13.112 7.40305C13.182 7.69056 13.112 8.09169 12.8743 8.65294L12.8597 8.68221L11.8815 10.3987C11.5023 11.0598 11.1165 11.7243 10.6022 12.2339C10.3265 12.5192 9.99988 12.7436 9.64137 12.8941C9.28286 13.0445 8.89962 13.118 8.514 13.1102C7.76752 13.1188 7.04781 12.8164 6.51042 12.2683C6.01074 11.7828 5.62826 11.1579 5.26367 10.5467L4.39779 9.09195C4.08203 8.59268 3.90951 8.13646 3.90951 7.76287C3.90273 7.59914 3.93169 7.43596 3.99414 7.28598C4.05969 7.13811 4.1621 7.01192 4.29036 6.921C4.35584 6.87489 4.42633 6.83731 4.50033 6.80909C4.44087 5.93828 4.42729 5.06464 4.45964 4.19224C4.47992 3.99272 4.5153 3.79525 4.56543 3.60172C4.80792 2.77646 5.32943 2.07466 6.03027 1.63047C6.41013 1.37624 6.823 1.18195 7.25586 1.05373C7.5293 0.971095 7.02148 0.0414232 7.30632 0.0207638C8.68001 -0.137625 10.9049 1.18802 11.862 2.28641C12.3405 2.83733 12.6432 3.56385 12.7083 4.52451L12.6546 6.89689L12.653 6.90034Z" fill="#212121"/>
</g>
<defs>
<clipPath id="clip0_1296_4941">
<rect width="20" height="20" fill="white"/>
</clipPath>
</defs>
</svg>
