<svg width="20" height="20" viewBox="0 0 20 20" fill="none" xmlns="http://www.w3.org/2000/svg">
<path d="M19.166 18.7513H18.7493V11.2513C18.7493 11.1408 18.7055 11.0348 18.6273 10.9567C18.5492 10.8785 18.4432 10.8346 18.3327 10.8346C18.2222 10.8346 18.1162 10.8785 18.0381 10.9567C17.9599 11.0348 17.916 11.1408 17.916 11.2513V18.7513H15.416V4.16797C15.416 3.94695 15.5038 3.73499 15.6601 3.57871C15.8164 3.42243 16.0283 3.33464 16.2493 3.33464H17.0827C17.3037 3.33464 17.5157 3.42243 17.6719 3.57871C17.8282 3.73499 17.916 3.94695 17.916 4.16797V18.5846C17.916 18.6951 17.9599 18.8011 18.0381 18.8793C18.1162 18.9574 18.2222 19.0013 18.3327 19.0013C18.4432 19.0013 18.5492 18.9574 18.6273 18.8793C18.7055 18.8011 18.7493 18.6951 18.7493 18.5846V4.16797C18.7493 3.72594 18.5738 3.30202 18.2612 2.98946C17.9486 2.6769 17.5247 2.5013 17.0827 2.5013H16.2493C15.8073 2.5013 15.3834 2.6769 15.0708 2.98946C14.7583 3.30202 14.5827 3.72594 14.5827 4.16797V18.7513H12.916V8.33463C12.916 8.11577 12.8729 7.89904 12.7891 7.69683C12.7054 7.49462 12.5826 7.31089 12.4279 7.15612C12.2731 7.00136 12.0894 6.87859 11.8872 6.79484C11.6849 6.71108 11.4682 6.66797 11.2493 6.66797H10.416C10.1971 6.66797 9.98042 6.71108 9.77821 6.79484C9.576 6.87859 9.39227 7.00136 9.2375 7.15612C9.08274 7.31089 8.95997 7.49462 8.87622 7.69683C8.79246 7.89904 8.74935 8.11577 8.74935 8.33463V18.7513H7.08268V12.5013C7.08268 12.2824 7.03957 12.0657 6.95581 11.8635C6.87206 11.6613 6.74929 11.4776 6.59453 11.3228C6.43976 11.168 6.25603 11.0453 6.05382 10.9615C5.85161 10.8777 5.63489 10.8346 5.41602 10.8346H4.58268C4.36381 10.8346 4.14709 10.8777 3.94488 10.9615C3.74267 11.0453 3.55894 11.168 3.40417 11.3228C3.24941 11.4776 3.12664 11.6613 3.04288 11.8635C2.95913 12.0657 2.91602 12.2824 2.91602 12.5013V18.7513H1.24935V0.834635C1.24935 0.724129 1.20545 0.618148 1.12731 0.540008C1.04917 0.461867 0.943189 0.417969 0.832682 0.417969C0.722175 0.417969 0.616195 0.461867 0.538054 0.540008C0.459914 0.618148 0.416016 0.724129 0.416016 0.834635V19.168C0.416016 19.2227 0.426793 19.2769 0.447732 19.3274C0.468672 19.378 0.499363 19.4239 0.538054 19.4626C0.576746 19.5013 0.622679 19.532 0.673231 19.5529C0.723783 19.5739 0.777965 19.5846 0.832682 19.5846H19.166C19.2765 19.5846 19.3825 19.5407 19.4606 19.4626C19.5388 19.3845 19.5827 19.2785 19.5827 19.168C19.5827 19.0575 19.5388 18.9515 19.4606 18.8733C19.3825 18.7952 19.2765 18.7513 19.166 18.7513ZM6.24935 18.7513H3.74935V12.5013C3.74935 12.2803 3.83715 12.0683 3.99343 11.912C4.14971 11.7558 4.36167 11.668 4.58268 11.668H5.41602C5.52545 11.668 5.63381 11.6895 5.73492 11.7314C5.83602 11.7733 5.92789 11.8347 6.00527 11.912C6.08265 11.9894 6.14404 12.0813 6.18591 12.1824C6.22779 12.2835 6.24935 12.3919 6.24935 12.5013V18.7513ZM12.0827 18.7513H9.58268V8.33463C9.58268 8.11362 9.67048 7.90166 9.82676 7.74538C9.98304 7.5891 10.195 7.5013 10.416 7.5013H11.2493C11.3588 7.5013 11.4671 7.52286 11.5683 7.56474C11.6694 7.60661 11.7612 7.668 11.8386 7.74538C11.916 7.82276 11.9774 7.91463 12.0192 8.01573C12.0611 8.11684 12.0827 8.2252 12.0827 8.33463V18.7513Z" fill="#95989C"/>
</svg>
