<svg width="20" height="20" viewBox="0 0 20 20" fill="none" xmlns="http://www.w3.org/2000/svg">
<path d="M19.6637 4.34593L19.6292 4.31144C19.1809 3.86308 18.3877 3.86308 17.9393 4.31144L16.1459 6.13932C16.0425 6.24278 15.9045 6.24278 15.801 6.13932L13.2833 3.79412C13.0419 3.58717 12.7315 3.44922 12.3866 3.44922H8.62734C8.52389 3.44922 8.45489 3.48372 8.42039 3.51821L5.24743 6.55322C4.79907 7.03608 4.76457 7.7948 5.17843 8.24316C5.38538 8.48457 5.69575 8.62252 6.04065 8.62252C6.38555 8.62252 6.69592 8.48457 6.90287 8.24316L9.14462 5.86346H9.93784L4.69566 11.7265H1.45374C0.660518 11.7265 0.039709 12.3128 0.00521093 13.0371C-0.0292871 13.4164 0.108666 13.7958 0.384572 14.0717C0.660479 14.3131 1.00538 14.4856 1.38474 14.4856H6.21318C6.31664 14.4856 6.38563 14.4511 6.45459 14.3821L8.93778 11.7265L11.0071 13.8993L10.3863 17.9C10.2138 18.5898 10.5587 19.2451 11.145 19.521C11.352 19.6244 11.5244 19.6589 11.7313 19.6589C11.9383 19.6589 12.1452 19.6244 12.3522 19.521C12.6971 19.3485 12.973 19.0037 13.0764 18.5898L14.1455 12.8301C14.1455 12.7267 14.111 12.5887 14.0421 12.5197L11.1795 9.65719L13.4558 7.38094L15.0423 8.96742C15.4906 9.41578 16.2494 9.41578 16.6977 8.96742L19.6637 6.00141C20.1121 5.55301 20.1121 4.79429 19.6637 4.34593ZM19.1809 5.51855L16.2149 8.48457C16.0079 8.65702 15.6976 8.65702 15.5251 8.48457L13.6972 6.65668C13.5593 6.51872 13.3523 6.51872 13.2144 6.65668L10.4553 9.41578C10.3863 9.48478 10.3518 9.55373 10.3518 9.65719C10.3518 9.76064 10.3863 9.82964 10.4898 9.93309L13.4558 12.8991L12.4211 18.4518C12.3521 18.6242 12.2142 18.7967 12.0417 18.9001C11.8693 18.9691 11.6624 19.0036 11.4554 18.9001C11.145 18.7622 11.0071 18.4173 11.0761 18.0379L11.7313 13.8303C11.7313 13.7268 11.6968 13.6233 11.6279 13.5544L9.17919 11.0022C9.1102 10.9332 9.04124 10.8988 8.93778 10.8988C8.83433 10.8988 8.73083 10.9333 8.69638 11.0022L6.07523 13.7958H1.38478C1.17783 13.7958 1.00542 13.7268 0.867467 13.5888C0.764012 13.4509 0.695016 13.2784 0.695016 13.0715C0.695016 12.6922 1.03992 12.4163 1.45378 12.4163H4.83365C4.9371 12.4163 5.0061 12.3818 5.07506 12.3818L10.9381 5.82892C11.0416 5.72547 11.0416 5.58751 11.0071 5.44956C10.9726 5.31161 10.8347 5.24261 10.6967 5.24261H8.97228C8.90329 5.24261 8.79983 5.27711 8.73087 5.34606L6.38563 7.82926C6.31664 7.93271 6.17868 8.00171 6.04073 8.00171C5.90278 8.00171 5.76482 7.93271 5.66137 7.82926C5.48892 7.62231 5.48892 7.31195 5.69587 7.105L8.76537 4.17348H12.4211C12.5591 4.17348 12.7316 4.24248 12.835 4.34593L15.3527 6.69118C15.732 7.03608 16.3183 7.00158 16.6632 6.65668L18.4567 4.82879C18.6291 4.65634 18.974 4.65634 19.1464 4.82879L19.1809 4.86329C19.3533 5.0357 19.3533 5.3461 19.1809 5.51855Z" fill="#95989C"/>
<path d="M15.8701 4.48238C17.0082 4.48238 17.9395 3.55121 17.9395 2.41305C17.9395 1.27488 17.0082 0.34375 15.8701 0.34375C14.732 0.34375 13.8008 1.27492 13.8008 2.41309C13.8008 3.55125 14.732 4.48238 15.8701 4.48238ZM15.8701 1.03352C16.6289 1.03352 17.2496 1.65432 17.2496 2.41305C17.2496 3.17181 16.6288 3.79258 15.8701 3.79258C15.1114 3.79258 14.4906 3.17177 14.4906 2.41305C14.4906 1.65432 15.1114 1.03352 15.8701 1.03352Z" fill="#95989C"/>
</svg>
