<svg width="22" height="22" viewBox="0 0 22 22" fill="none" xmlns="http://www.w3.org/2000/svg">
<path d="M1 5C1 2.79086 2.79086 1 5 1H11H13.7574C14.553 1 15.3161 1.31607 15.8787 1.87868L20.1213 6.12132C20.6839 6.68393 21 7.44699 21 8.24264V11V17C21 19.2091 19.2091 21 17 21H5C2.79086 21 1 19.2091 1 17V5Z" stroke="#212121" stroke-width="1.5"/>
<path d="M5 14C5 12.8954 5.89543 12 7 12H15C16.1046 12 17 12.8954 17 14V21H5V14Z" stroke="#212121" stroke-width="1.5"/>
<path d="M7 1V5C7 5.55228 7.44772 6 8 6H14C14.5523 6 15 5.55228 15 5V1" stroke="#212121" stroke-width="1.5"/>
</svg>
