<svg width="20" height="18" viewBox="0 0 20 18" fill="none" xmlns="http://www.w3.org/2000/svg">
<path d="M3.07108 3.3984L3.07108 3.39841C1.2193 5.25007 0.2 7.71106 0.2 10.3297C0.2 12.9484 1.2193 15.4094 3.07108 17.261L2.92966 17.4024L3.07108 17.261C3.34803 17.538 3.79723 17.538 4.07418 17.261C4.35114 16.9839 4.35112 16.5349 4.07417 16.2579C2.71279 14.8965 1.87733 13.1482 1.67 11.2609L1.64563 11.039H1.86881H2.72792C3.1196 11.039 3.43722 10.7215 3.43722 10.3297C3.43722 9.93805 3.11961 9.6205 2.72792 9.6205H1.86881H1.64564L1.67 9.39867C1.84346 7.81911 2.45729 6.337 3.45137 5.0973L3.59099 4.92318L3.74881 5.08099L4.35405 5.68616L4.35408 5.68619C4.49256 5.82472 4.6738 5.89395 4.85551 5.89395C5.03743 5.89395 5.21854 5.82477 5.35707 5.68619L5.35709 5.68617C5.63403 5.40923 5.63405 4.96009 5.35709 4.68307C5.35709 4.68306 5.35708 4.68306 5.35708 4.68306L4.7521 4.07808L4.59412 3.9201L4.76855 3.78051C6.03708 2.76528 7.53406 2.17252 9.06928 2.00201L9.29136 1.97735V2.20079V3.05348C9.29136 3.44521 9.60889 3.76278 10.0007 3.76278C10.3923 3.76278 10.71 3.44519 10.71 3.05348V2.20037V1.97702L10.932 2.00158C12.4675 2.17146 13.9652 2.76385 15.2343 3.77889L15.4088 3.91847L15.2508 4.07649L14.6443 4.68306L14.6442 4.68308C14.3672 4.96008 14.3672 5.40915 14.6442 5.68623L14.6443 5.68625C14.7827 5.82475 14.964 5.89395 15.1457 5.89395C15.3276 5.89395 15.5087 5.82477 15.6473 5.68623C15.6473 5.68623 15.6473 5.68623 15.6473 5.68623L16.254 5.07948L16.4119 4.92149L16.5515 5.09593C17.5671 6.36496 18.16 7.86262 18.3302 9.39841L18.3548 9.62044H18.1314H17.2769C16.8851 9.62044 16.5676 9.93802 16.5676 10.3297C16.5676 10.7215 16.8851 11.039 17.2769 11.039H18.1314H18.3548L18.3302 11.261C18.1277 13.0875 17.3281 14.8602 15.9305 16.2578C15.6536 16.5348 15.6535 16.9838 15.9304 17.2609C15.9305 17.2609 15.9305 17.261 15.9305 17.261M3.07108 3.3984L17.0749 17.4024C16.8975 17.5799 16.6647 17.6687 16.4321 17.6687C16.1993 17.6687 15.9667 17.5799 15.7891 17.4024L15.9305 17.261M3.07108 3.3984C6.89293 -0.423388 13.1119 -0.423442 16.9336 3.39834C20.7555 7.22019 20.7555 13.4392 16.9335 17.261L16.9335 17.261C16.7951 17.3994 16.6139 17.4687 16.4321 17.4687C16.2503 17.4687 16.0691 17.3995 15.9305 17.261M3.07108 3.3984L15.9305 17.261" fill="#95989C" stroke="white" stroke-width="0.4"/>
<path d="M7.21009 16.0516H12.7952C13.1869 16.0516 13.5045 16.3692 13.5045 16.7609C13.5045 17.1527 13.1869 17.4702 12.7952 17.4702H7.21009C6.81842 17.4702 6.50078 17.1527 6.50078 16.7609C6.50078 16.3692 6.81843 16.0516 7.21009 16.0516Z" fill="#95989C" stroke="white" stroke-width="0.4"/>
<path d="M11.0686 10.8705L11.0152 10.9239L11.0104 10.9992C10.9771 11.5247 10.5442 11.9411 10.0125 11.9468L10.0014 11.9468C9.44214 11.9467 8.98896 11.4933 8.98906 10.9343V10.9342C8.98906 10.3975 9.40765 9.95895 9.93671 9.92543L10.0121 9.92065L10.0655 9.86725L12.0719 7.86085C12.3489 7.58388 12.798 7.58389 13.075 7.86084C13.3521 8.13791 13.3521 8.58698 13.075 8.86398L13.075 8.864L11.0686 10.8705Z" fill="#95989C" stroke="white" stroke-width="0.4"/>
</svg>
