<svg width="18" height="16" viewBox="0 0 18 16" fill="none" xmlns="http://www.w3.org/2000/svg">
<path d="M2.70977 3.41797L4.27227 4.28359L5.71289 3.62422L6.02539 1.98672L4.71914 0.558594L4.90039 0.246094C3.90744 0.365522 2.96943 0.766749 2.19727 1.40234L2.47227 1.45547L2.70977 3.41797Z" fill="#212121"/>
<path d="M7.82305 0.917969L7.79492 0.677344L7.75117 0.658594C7.6043 0.592969 7.43867 0.530469 7.30117 0.477344L7.2418 0.458594C6.90858 0.348609 6.56521 0.272188 6.2168 0.230469H6.18867C6.01992 0.211719 5.85117 0.202344 5.68242 0.199219H5.64805L5.49805 0.471094L6.50117 1.53984L7.82305 0.917969Z" fill="#212121"/>
<path d="M0.975589 7.37422L2.94121 7.68672L4.14746 6.43672L3.95059 4.82109L2.40996 3.96484L0.603714 4.80859L0.341214 4.52734C0.134084 5.62802 0.281807 6.76603 0.763089 7.77734L0.975589 7.37422Z" fill="#212121"/>
<path d="M2.08242 3.43047L1.90742 1.96797L1.64805 1.91797L1.6168 1.95234C1.50742 2.07109 1.4043 2.19609 1.3043 2.32734L1.2668 2.37422C1.16992 2.50859 1.07617 2.64609 0.991797 2.78984C0.907422 2.93359 0.832422 3.08047 0.760547 3.23359L0.719922 3.31172C0.655339 3.45755 0.597005 3.60651 0.544922 3.75859V3.79922L0.766797 4.03672L2.08242 3.43047Z" fill="#212121"/>
<path d="M0.306641 12.6867C0.484766 12.8273 0.675391 12.9992 0.894141 13.218C1.11289 13.4367 1.45977 13.7461 1.81289 14.0336V11.3398C1.45977 11.6273 1.15352 11.9148 0.897266 12.1586C0.641016 12.4023 0.484766 12.5461 0.306641 12.6867Z" fill="#212121"/>
<path d="M10.1047 5.12188C10.3339 4.9834 10.5731 4.86222 10.8203 4.75937C10.8203 4.66875 10.7953 4.57813 10.7797 4.4875C10.7641 4.39688 10.7578 4.39688 10.7484 4.35312C10.7266 4.25937 10.7078 4.16563 10.6828 4.075C10.6578 3.98438 10.6484 3.96875 10.6328 3.91563C10.6172 3.8625 10.5828 3.75 10.5516 3.67187C10.5203 3.59375 10.5078 3.5625 10.4859 3.50625C10.4641 3.45 10.4391 3.39062 10.4109 3.33125L10.1953 3.3125L9.57031 4.64688L10.1047 5.12188Z" fill="#212121"/>
<path d="M4.58203 4.82891L4.76016 6.28828L6.20391 6.56953L6.91641 5.28203L5.91328 4.20703L4.58203 4.82891Z" fill="#212121"/>
<path d="M6.63867 2.15859L6.32617 3.72109L7.38867 4.87422L8.98242 4.45547L9.8168 2.63672L10.048 2.66484C9.64628 2.01904 9.10622 1.47044 8.4668 1.05859L8.49492 1.29922L6.63867 2.15859Z" fill="#212121"/>
<path d="M7.57344 8.96797C7.74138 7.81155 8.27719 6.73993 9.10156 5.91172C9.2529 5.76517 9.41254 5.62744 9.57969 5.49922L9.11719 5.07422L7.52031 5.49922L6.75781 6.87109L7.38281 8.97109L7.57344 8.96797Z" fill="#212121"/>
<path d="M3.00742 9.73203L2.77617 8.27891L1.32617 8.05078L1.13867 8.41953C1.19492 8.50391 1.25117 8.58828 1.31367 8.66953C1.37617 8.75078 1.38242 8.76953 1.42305 8.81641C1.54528 8.96718 1.67568 9.11115 1.81367 9.24766C1.95023 9.38363 2.0942 9.51195 2.24492 9.63203C2.29492 9.67266 2.34492 9.70703 2.39805 9.74453C2.45117 9.78203 2.56055 9.86328 2.64492 9.91641L3.00742 9.73203Z" fill="#212121"/>
<path d="M13.3945 12.6281L13.582 12.8781L13.3977 12.625L13.3945 12.6281Z" fill="#212121"/>
<path d="M17.6725 8.9125C17.6725 8.89687 17.6725 8.87812 17.6725 8.8625C17.6725 8.84687 17.6506 8.75937 17.6381 8.70625C17.6256 8.65312 17.6037 8.55937 17.585 8.48437C17.5662 8.40937 17.5537 8.37813 17.5381 8.325C17.5225 8.27188 17.4912 8.18437 17.4662 8.11562L17.4068 7.95938C17.3798 7.89063 17.3506 7.82292 17.3193 7.75625L17.2475 7.60625C17.2131 7.54062 17.1787 7.475 17.1412 7.40938L17.06 7.26875C17.0193 7.20312 16.9756 7.1375 16.935 7.07188L16.8506 6.94375C16.8006 6.875 16.7475 6.80625 16.6943 6.74062L16.6131 6.6375C16.5287 6.54062 16.4412 6.44375 16.3506 6.35312C16.26 6.2625 16.1631 6.175 16.0662 6.09062L15.9662 6.0125C15.8975 5.95937 15.8318 5.90312 15.76 5.85312L15.635 5.76875L15.4381 5.64063L15.2975 5.5625L15.0975 5.45625L14.9381 5.3875L14.7318 5.29688L14.5818 5.2375L14.3662 5.16563L14.2131 5.11875L13.9818 5.0625L13.835 5.03125H13.7818C13.7424 5.55183 13.816 6.07479 13.9977 6.56422C14.1794 7.05366 14.4649 7.49798 14.8345 7.8667C15.2041 8.23542 15.6491 8.51979 16.139 8.70031C16.6288 8.88083 17.152 8.95322 17.6725 8.9125Z" fill="#212121"/>
<path d="M8.19141 9.03828C8.78918 9.12655 9.37514 9.28169 9.93828 9.50078V9.48516L10.3789 9.68828C10.8347 9.89963 11.2699 10.1528 11.6789 10.4445L11.8102 10.5383C12.2806 10.8932 12.7284 11.2773 13.1508 11.6883C13.3491 11.8817 13.5577 12.0643 13.7758 12.2352C13.8473 12.2846 13.9058 12.3507 13.9462 12.4277C13.9866 12.5047 14.0077 12.5904 14.0077 12.6773C14.0077 12.7643 13.9866 12.85 13.9462 12.927C13.9058 13.004 13.8473 13.0701 13.7758 13.1195C13.5577 13.2904 13.3491 13.473 13.1508 13.6664C12.8914 13.9133 12.582 14.2008 12.2133 14.4945L12.3945 14.5227C13.0592 14.5975 13.7322 14.5322 14.37 14.3309C15.0078 14.1296 15.5964 13.7967 16.0977 13.3539L9.33203 6.58203C8.72454 7.27472 8.32866 8.12723 8.19141 9.03828Z" fill="#212121"/>
<path d="M17.3973 9.56226C16.8093 9.56363 16.2275 9.44253 15.6889 9.20667C15.1503 8.97081 14.6667 8.62536 14.2689 8.19233C13.8712 7.7593 13.568 7.24818 13.3786 6.69153C13.1893 6.13487 13.1179 5.54488 13.1691 4.95914C11.9262 4.89667 10.7082 5.32287 9.77539 6.14664L16.5504 12.9216C17.3768 11.9922 17.8075 10.7766 17.7504 9.53414C17.6296 9.55289 17.5118 9.56226 17.3973 9.56226Z" fill="#212121"/>
<path d="M13.3156 12.6859C13.1375 12.5422 12.9437 12.3734 12.7219 12.1516C12.5 11.9297 12.1625 11.6234 11.8125 11.3359V14.0359C12.1625 13.7484 12.4656 13.4641 12.7219 13.2203C12.9781 12.9766 13.1375 12.8266 13.3156 12.6859Z" fill="#212121"/>
<path d="M10.9438 10.7094L10.8062 10.625L10.6344 10.525L10.5625 10.5V14.875L10.6406 14.8313L10.8094 14.7344L10.95 14.65L11.1156 14.5437L11.1938 14.4906V10.8688L11.1125 10.8125L10.9438 10.7094Z" fill="#212121"/>
<path d="M2.8168 10.625L2.67617 10.7125L2.51055 10.8188L2.43555 10.8688V14.5031L2.51055 14.5531L2.67617 14.6594L2.8168 14.7438L2.98555 14.8438L3.06367 14.875V10.5L2.98555 10.5437L2.8168 10.625Z" fill="#212121"/>
<path d="M3.6875 9.50313C4.65787 9.13002 5.6885 8.9383 6.72812 8.9375L6.20937 7.20312L4.58438 6.89062L3.375 8.11875L3.59688 9.52187L3.67813 9.48437L3.6875 9.50313Z" fill="#212121"/>
<path d="M3.6875 10.1878V15.1878C4.67516 15.6086 5.73895 15.8213 6.8125 15.8128C7.88604 15.8213 8.94984 15.6086 9.9375 15.1878V10.1878C8.94984 9.76691 7.88604 9.55415 6.8125 9.56275C5.73895 9.55415 4.67516 9.76691 3.6875 10.1878ZM7.125 11.7503V12.3753H7.75V11.7503C7.75 11.6674 7.78292 11.5879 7.84153 11.5293C7.90013 11.4707 7.97962 11.4378 8.0625 11.4378C8.14538 11.4378 8.22487 11.4707 8.28347 11.5293C8.34208 11.5879 8.375 11.6674 8.375 11.7503V12.3753H8.6875C8.77038 12.3753 8.84987 12.4082 8.90847 12.4668C8.96708 12.5254 9 12.6049 9 12.6878C9 12.7706 8.96708 12.8501 8.90847 12.9087C8.84987 12.9673 8.77038 13.0003 8.6875 13.0003H8.375V13.6253C8.375 13.7081 8.34208 13.7876 8.28347 13.8462C8.22487 13.9048 8.14538 13.9378 8.0625 13.9378C7.97962 13.9378 7.90013 13.9048 7.84153 13.8462C7.78292 13.7876 7.75 13.7081 7.75 13.6253V13.0003H7.125V13.6253C7.125 13.7081 7.09208 13.7876 7.03347 13.8462C6.97487 13.9048 6.89538 13.9378 6.8125 13.9378C6.72962 13.9378 6.65013 13.9048 6.59153 13.8462C6.53292 13.7876 6.5 13.7081 6.5 13.6253V13.0003H5.875V13.6253C5.875 13.7081 5.84208 13.7876 5.78347 13.8462C5.72487 13.9048 5.64538 13.9378 5.5625 13.9378C5.47962 13.9378 5.40013 13.9048 5.34153 13.8462C5.28292 13.7876 5.25 13.7081 5.25 13.6253V13.0003H4.9375C4.85462 13.0003 4.77513 12.9673 4.71653 12.9087C4.65792 12.8501 4.625 12.7706 4.625 12.6878C4.625 12.6049 4.65792 12.5254 4.71653 12.4668C4.77513 12.4082 4.85462 12.3753 4.9375 12.3753H5.25V11.7503C5.25 11.6674 5.28292 11.5879 5.34153 11.5293C5.40013 11.4707 5.47962 11.4378 5.5625 11.4378C5.64538 11.4378 5.72487 11.4707 5.78347 11.5293C5.84208 11.5879 5.875 11.6674 5.875 11.7503V12.3753H6.5V11.7503C6.5 11.6674 6.53292 11.5879 6.59153 11.5293C6.65013 11.4707 6.72962 11.4378 6.8125 11.4378C6.89538 11.4378 6.97487 11.4707 7.03347 11.5293C7.09208 11.5879 7.125 11.6674 7.125 11.7503Z" fill="#212121"/>
</svg>
