<svg width="20" height="20" viewBox="0 0 20 20" fill="none" xmlns="http://www.w3.org/2000/svg">
<g clip-path="url(#clip0_1045_6761)">
<path d="M14.0185 8.49918L14.0193 8.49919C14.0326 7.8277 13.9411 7.1411 13.7463 6.46276L13.7463 6.46274C13.3754 5.16982 12.6336 3.9029 11.5352 2.80424C10.8102 2.07949 10.0175 1.48323 9.18797 1.03524C8.5655 0.699416 7.9226 0.447145 7.27204 0.289418L7.27202 0.289412C6.29717 0.0528072 5.30232 0.0300862 4.35471 0.26538L4.35456 0.265416C3.4077 0.499015 2.5116 0.995269 1.75441 1.75427L1.75426 1.75442C1.07958 2.42783 0.612198 3.20997 0.353306 4.04081L0.353277 4.0409C0.158465 4.66396 0.0792276 5.31394 0.104594 5.96636C0.142731 6.9463 0.412949 7.93184 0.874192 8.8751C1.33595 9.8183 1.98881 10.7196 2.80416 11.5352C2.80416 11.5352 2.80417 11.5352 2.80418 11.5352M14.0185 8.49918L7.74904 14.0922C5.99838 13.9278 4.21319 13.0851 2.73346 11.6059L2.80418 11.5352M14.0185 8.49918L14.0198 8.51156C14.1656 9.90917 14.5214 11.1869 15.0015 12.2862C15.4142 13.2323 15.9207 14.0449 16.4553 14.6864L14.0004 15.9009C13.5196 15.5524 12.9799 15.2275 12.3755 14.948L12.3754 14.9479C11.3302 14.4652 10.0918 14.1154 8.6128 14.0158L8.61283 14.0152L8.60243 14.0156C8.32275 14.0258 8.04101 14.019 7.75839 13.9926M14.0185 8.49918L7.75839 13.9926M2.80418 11.5352C4.26905 12.9995 6.0331 13.8306 7.75839 13.9926M2.80418 11.5352L7.75839 13.9926M9.8358 12.425L9.83578 12.425C8.93494 12.7248 7.89595 12.7359 6.83954 12.4326C5.78401 12.1302 4.71479 11.5131 3.77056 10.5688C3.13329 9.93189 2.61721 9.24195 2.2377 8.53862C1.9529 8.01127 1.74506 7.47619 1.61749 6.95022L1.61747 6.95016C1.42637 6.16032 1.4156 5.39394 1.59183 4.68355L1.59186 4.68342C1.76924 3.97245 2.12884 3.31414 2.72054 2.72084L2.72069 2.72069C3.24774 2.19444 3.82721 1.85271 4.44861 1.65783L4.44868 1.65781C4.91456 1.51206 5.40472 1.45077 5.91344 1.47027L9.8358 12.425ZM9.8358 12.425C10.4371 12.2247 10.9785 11.8981 11.4387 11.4387L11.4388 11.4386C11.8983 10.9788 12.2246 10.4371 12.4251 9.83586L12.4252 9.83576M9.8358 12.425L12.4252 9.83576M12.4252 9.83576C12.6248 9.23482 12.6964 8.57372 12.632 7.88564C12.504 6.51043 11.8282 5.02947 10.5688 3.77057C9.85184 3.05368 9.06834 2.4901 8.27435 2.10174M12.4252 9.83576L8.27435 2.10174M8.27435 2.10174C7.47997 1.71291 6.67575 1.49932 5.91346 1.47028L8.27435 2.10174ZM12.949 13.7077L12.949 13.7077C13.4864 13.9562 13.9784 14.2363 14.4289 14.5355L14.5691 14.3994C14.2705 13.919 13.9949 13.3955 13.7489 12.8331C13.5694 12.4218 13.4165 11.9998 13.2869 11.5631L13.2254 11.3559L13.1073 11.5369C12.9055 11.846 12.6725 12.1378 12.405 12.4049L12.4048 12.405C12.1651 12.6454 11.9058 12.8582 11.6321 13.0453L11.4583 13.1641L11.6601 13.2238C12.1102 13.3569 12.5376 13.5173 12.949 13.7077Z" fill="#212121" stroke="white" stroke-width="0.2"/>
<path d="M17.1416 15.2734L14.6211 16.5202C14.7651 16.6453 14.9027 16.7715 15.0337 16.8988C15.0735 16.9375 15.1134 16.9768 15.1532 17.0167C15.2154 17.0789 15.2778 17.1426 15.3397 17.2072L17.8836 15.949C17.6336 15.7341 17.3802 15.5054 17.1416 15.2734Z" fill="#212121"/>
<path d="M19.8645 17.6445L16.9258 19.0982C16.9702 19.1572 17.0105 19.2116 17.0456 19.2589C17.1003 19.333 17.1429 19.3917 17.1715 19.4313C17.1859 19.4513 17.1965 19.4664 17.2034 19.4762L17.2111 19.4869L17.2127 19.4893L17.213 19.4896L17.2159 19.4936L17.2188 19.4975C17.2568 19.5501 17.2987 19.5993 17.3439 19.6445C17.5464 19.8469 17.8155 19.9728 18.105 19.9964L18.1079 19.9967C18.461 20.024 18.8098 19.8963 19.0621 19.6444L19.6455 19.0611C19.8974 18.8092 20.0254 18.4599 19.9975 18.106V18.1055C19.9846 17.9423 19.9381 17.7864 19.8645 17.6445Z" fill="#212121"/>
<path d="M18.6322 16.5661C18.5891 16.5324 18.5445 16.4966 18.4999 16.4609L15.8516 17.7709C16.0739 18.0257 16.283 18.2783 16.4671 18.5089L19.3264 17.0945C19.1744 16.9832 18.9271 16.7989 18.6322 16.5661Z" fill="#212121"/>
<path d="M9.46473 19.1988L9.46472 19.1989C8.84071 19.7887 7.85652 19.7609 7.26672 19.1367C6.67721 18.5127 6.7051 17.5285 7.32887 16.9387C7.95313 16.3491 8.93734 16.3769 9.52689 17.0008C10.1167 17.6251 10.089 18.6091 9.46473 19.1988Z" fill="#212121" stroke="white" stroke-width="0.2"/>
</g>
<defs>
<clipPath id="clip0_1045_6761">
<rect width="20" height="20" fill="white"/>
</clipPath>
</defs>
</svg>
